
<svg xmlns="http://www.w3.org/2000/svg" xmlns:xlink="http://www.w3.org/1999/xlink" width="10px" height="10px" viewBox="0 0 10 10" version="1.1">
<g id="surface1">
<path style="fill:none;stroke-width:3;stroke-linecap:butt;stroke-linejoin:miter;stroke:rgb(0%,0%,0%);stroke-opacity:1;stroke-miterlimit:4;" d="M 1.484375 -1.515625 L 28.515625 -1.515625 L 28.515625 58.484375 L 1.484375 58.484375 Z M 1.484375 -1.515625 " transform="matrix(0.05,0,0,-0.05,0.00000000447035,9.85)"/>
<path style="fill:none;stroke-width:3;stroke-linecap:butt;stroke-linejoin:miter;stroke:rgb(0%,0%,0%);stroke-opacity:1;stroke-miterlimit:4;" d="M 1.484375 -1.53125 L 28.515625 -1.53125 L 28.515625 58.46875 L 1.484375 58.46875 Z M 1.484375 -1.53125 " transform="matrix(0.05,0,0,-0.05,0.00000000447035,6.4)"/>
<path style="fill:none;stroke-width:3;stroke-linecap:butt;stroke-linejoin:miter;stroke:rgb(0%,0%,0%);stroke-opacity:1;stroke-miterlimit:4;" d="M 1.484375 -1.53125 L 28.515625 -1.53125 L 28.515625 56.515625 L 1.484375 56.515625 Z M 1.484375 -1.53125 " transform="matrix(0.05,0,0,-0.05,0.00000000447035,2.9)"/>
<path style="fill:none;stroke-width:3;stroke-linecap:butt;stroke-linejoin:miter;stroke:rgb(0%,0%,0%);stroke-opacity:1;stroke-miterlimit:4;" d="M 124.53125 1.484375 L 124.53125 28.515625 L 198.515625 28.515625 L 198.515625 1.484375 Z M 124.53125 1.484375 " transform="matrix(0.05,0,0,0.05,0,0)"/>
<path style="fill:none;stroke-width:3;stroke-linecap:butt;stroke-linejoin:miter;stroke:rgb(0%,0%,0%);stroke-opacity:1;stroke-miterlimit:4;" d="M 41.484375 1.484375 L 41.484375 28.515625 L 115.46875 28.515625 L 115.46875 1.484375 Z M 41.484375 1.484375 " transform="matrix(0.05,0,0,0.05,0,0)"/>
<path style="fill:none;stroke-width:3;stroke-linecap:butt;stroke-linejoin:miter;stroke:rgb(0%,0%,0%);stroke-opacity:1;stroke-miterlimit:4;" d="M 1.484375 -1.515625 L 158.515625 -1.515625 L 158.515625 152.46875 L 1.484375 152.46875 Z M 1.484375 -1.515625 " transform="matrix(0.05,0,0,-0.05,2,9.85)"/>
</g>
</svg>
