
<svg xmlns="http://www.w3.org/2000/svg" xmlns:xlink="http://www.w3.org/1999/xlink" width="10px" height="10px" viewBox="0 0 10 10" version="1.1">
<g id="surface1">
<path style="fill:none;stroke-width:3;stroke-linecap:butt;stroke-linejoin:miter;stroke:rgb(0%,0%,0%);stroke-opacity:1;stroke-miterlimit:4;" d="M 1.484375 198.484375 L 58.515625 198.484375 L 58.515625 325.515625 L 1.484375 325.515625 Z M 1.484375 198.484375 " transform="matrix(-0.000000000000000009,-0.05,0.05,-0.000000000000000009,-9.85,10)"/>
<path style="fill:none;stroke-width:3;stroke-linecap:butt;stroke-linejoin:miter;stroke:rgb(0%,0%,0%);stroke-opacity:1;stroke-miterlimit:4;" d="M 1.46875 129.484375 L 58.5 129.484375 L 58.5 256.515625 L 1.46875 256.515625 Z M 1.46875 129.484375 " transform="matrix(-0.000000000000000009,-0.05,0.05,-0.000000000000000009,-6.4,6.55)"/>
<path style="fill:none;stroke-width:3;stroke-linecap:butt;stroke-linejoin:miter;stroke:rgb(0%,0%,0%);stroke-opacity:1;stroke-miterlimit:4;" d="M 1.515625 61.484375 L 58.46875 61.484375 L 58.46875 188.515625 L 1.515625 188.515625 Z M 1.515625 61.484375 " transform="matrix(-0.000000000000000009,-0.05,0.05,-0.000000000000000009,-3,3.15)"/>
<path style="fill:none;stroke-width:3;stroke-linecap:butt;stroke-linejoin:miter;stroke:rgb(0%,0%,0%);stroke-opacity:1;stroke-miterlimit:4;" d="M 141.484375 198.484375 L 228.515625 198.484375 L 228.515625 255.515625 L 141.484375 255.515625 Z M 141.484375 198.484375 " transform="matrix(-0.000000000000000009,-0.05,0.05,-0.000000000000000009,-2.85,17)"/>
<path style="fill:none;stroke-width:3;stroke-linecap:butt;stroke-linejoin:miter;stroke:rgb(0%,0%,0%);stroke-opacity:1;stroke-miterlimit:4;" d="M 141.515625 91.484375 L 228.46875 91.484375 L 228.46875 148.515625 L 141.515625 148.515625 Z M 141.515625 91.484375 " transform="matrix(-0.000000000000000009,-0.05,0.05,-0.000000000000000009,2.5,11.65)"/>
</g>
</svg>
