
<svg xmlns="http://www.w3.org/2000/svg" xmlns:xlink="http://www.w3.org/1999/xlink" width="10px" height="10px" viewBox="0 0 10 10" version="1.1">
<g id="surface1">
<path style="fill:none;stroke-width:3;stroke-linecap:butt;stroke-linejoin:miter;stroke:rgb(0%,0%,0%);stroke-opacity:1;stroke-miterlimit:4;" d="M -1.515625 -1.515625 L 90.515625 -1.515625 L 90.515625 195.515625 L -1.515625 195.515625 Z M -1.515625 -1.515625 " transform="matrix(0,-0.05,-0.05,0,9.85,9.85)"/>
<path style="fill:none;stroke-width:3;stroke-linecap:butt;stroke-linejoin:miter;stroke:rgb(0%,0%,0%);stroke-opacity:1;stroke-miterlimit:4;" d="M -1.515625 -1.515625 L 90.515625 -1.515625 L 90.515625 58.484375 L -1.515625 58.484375 Z M -1.515625 -1.515625 " transform="matrix(0,-0.05,-0.05,0,9.85,4.6)"/>
<path style="fill:none;stroke-width:3;stroke-linecap:butt;stroke-linejoin:miter;stroke:rgb(0%,0%,0%);stroke-opacity:1;stroke-miterlimit:4;" d="M -1.515625 -1.46875 L 90.515625 -1.46875 L 90.515625 58.53125 L -1.515625 58.53125 Z M -1.515625 -1.46875 " transform="matrix(0,-0.05,-0.05,0,6.45,4.6)"/>
<path style="fill:none;stroke-width:3;stroke-linecap:butt;stroke-linejoin:miter;stroke:rgb(0%,0%,0%);stroke-opacity:1;stroke-miterlimit:4;" d="M -1.515625 -1.484375 L 90.515625 -1.484375 L 90.515625 58.515625 L -1.515625 58.515625 Z M -1.515625 -1.484375 " transform="matrix(0,-0.05,-0.05,0,3,4.6)"/>
</g>
</svg>
