
<svg xmlns="http://www.w3.org/2000/svg" xmlns:xlink="http://www.w3.org/1999/xlink" width="10px" height="10px" viewBox="0 0 10 10" version="1.1">
<g id="surface1">
<path style="fill:none;stroke-width:3;stroke-linecap:butt;stroke-linejoin:miter;stroke:rgb(100%,100%,100%);stroke-opacity:1;stroke-miterlimit:4;" d="M 5.001172 19.490625 L 15.003516 19.490625 C 16.939453 19.490625 18.506641 21.063281 18.506641 22.996875 L 18.506641 43.003125 C 18.506641 44.936719 16.939453 46.509375 15.003516 46.509375 L 5.001172 46.509375 C 3.065234 46.509375 1.498047 44.936719 1.498047 43.003125 L 1.498047 22.996875 C 1.498047 21.063281 3.065234 19.490625 5.001172 19.490625 Z M 5.001172 19.490625 " transform="matrix(0.169492,0,0,0.151515,0,0)"/>
<path style="fill:none;stroke-width:3;stroke-linecap:butt;stroke-linejoin:miter;stroke:rgb(100%,100%,100%);stroke-opacity:1;stroke-miterlimit:4;" d="M 17.999609 20.496094 L 34.247656 2.449219 C 34.869922 1.753125 35.999219 2.191406 35.999219 3.09375 L 35.999219 62.90625 C 35.999219 63.808594 34.869922 64.246875 34.247656 63.550781 L 17.999609 45.503906 " transform="matrix(0.169492,0,0,0.151515,0,0)"/>
<path style=" stroke:none;fill-rule:nonzero;fill:rgb(100%,100%,100%);fill-opacity:1;" d="M 9.832031 5.152344 L 10 5.152344 L 10 5 L 9.832031 5 Z M 7.289062 5.152344 L 7.289062 5 L 7.117188 5 L 7.117188 5.152344 Z M 9.832031 5.304688 L 9.832031 5.453125 L 10 5.453125 L 10 5.304688 Z M 7.289062 5.304688 L 7.117188 5.304688 L 7.117188 5.453125 L 7.289062 5.453125 Z M 9.832031 5 L 7.289062 5 L 7.289062 5.304688 L 9.832031 5.304688 Z M 10 5.304688 L 10 5.152344 L 9.660156 5.152344 L 9.660156 5.304688 Z M 7.289062 5.453125 L 9.832031 5.453125 L 9.832031 5.152344 L 7.289062 5.152344 Z M 7.117188 5.152344 L 7.117188 5.304688 L 7.457031 5.304688 L 7.457031 5.152344 Z M 7.117188 5.152344 "/>
</g>
</svg>
