
<svg xmlns="http://www.w3.org/2000/svg" xmlns:xlink="http://www.w3.org/1999/xlink" width="15px" height="15px" viewBox="0 0 15 15" version="1.1">
<g id="surface1">
<path style="fill:none;stroke-width:3;stroke-linecap:butt;stroke-linejoin:miter;stroke:rgb(0%,0%,0%);stroke-opacity:1;stroke-miterlimit:4;" d="M 1.510417 1.510417 L 28.489583 1.510417 L 28.489583 61.510417 L 1.510417 61.510417 Z M 1.510417 1.510417 " transform="matrix(0.075,0,0,0.075,0,0)"/>
<path style="fill:none;stroke-width:3;stroke-linecap:butt;stroke-linejoin:miter;stroke:rgb(0%,0%,0%);stroke-opacity:1;stroke-miterlimit:4;" d="M 1.510417 70.520833 L 28.489583 70.520833 L 28.489583 130.520833 L 1.510417 130.520833 Z M 1.510417 70.520833 " transform="matrix(0.075,0,0,0.075,0,0)"/>
<path style="fill:none;stroke-width:3;stroke-linecap:butt;stroke-linejoin:miter;stroke:rgb(0%,0%,0%);stroke-opacity:1;stroke-miterlimit:4;" d="M 1.510417 140.520833 L 28.489583 140.520833 L 28.489583 198.489583 L 1.510417 198.489583 Z M 1.510417 140.520833 " transform="matrix(0.075,0,0,0.075,0,0)"/>
<path style="fill:none;stroke-width:3;stroke-linecap:butt;stroke-linejoin:miter;stroke:rgb(0%,0%,0%);stroke-opacity:1;stroke-miterlimit:4;" d="M 124.479167 198.489583 L 124.479167 171.510417 L 198.489583 171.510417 L 198.489583 198.489583 Z M 124.479167 198.489583 " transform="matrix(0.075,0,0,0.075,0,0)"/>
<path style="fill:none;stroke-width:3;stroke-linecap:butt;stroke-linejoin:miter;stroke:rgb(0%,0%,0%);stroke-opacity:1;stroke-miterlimit:4;" d="M 41.510417 198.489583 L 41.510417 171.510417 L 115.520833 171.510417 L 115.520833 198.489583 Z M 41.510417 198.489583 " transform="matrix(0.075,0,0,0.075,0,0)"/>
<path style="fill:none;stroke-width:3;stroke-linecap:butt;stroke-linejoin:miter;stroke:rgb(0%,0%,0%);stroke-opacity:1;stroke-miterlimit:4;" d="M 41.510417 1.510417 L 198.489583 1.510417 L 198.489583 155.520833 L 41.510417 155.520833 Z M 41.510417 1.510417 " transform="matrix(0.075,0,0,0.075,0,0)"/>
</g>
</svg>
