
<svg xmlns="http://www.w3.org/2000/svg" xmlns:xlink="http://www.w3.org/1999/xlink" width="15px" height="15px" viewBox="0 0 15 15" version="1.1">
<g id="surface1">
<path style="fill:none;stroke-width:3;stroke-linecap:butt;stroke-linejoin:miter;stroke:rgb(0%,0%,0%);stroke-opacity:1;stroke-miterlimit:4;" d="M -1.489583 1.510417 L 90.489583 1.510417 L 90.489583 198.489583 L -1.489583 198.489583 Z M -1.489583 1.510417 " transform="matrix(-0.075,0,0,0.075,14.775,0)"/>
<path style="fill:none;stroke-width:3;stroke-linecap:butt;stroke-linejoin:miter;stroke:rgb(0%,0%,0%);stroke-opacity:1;stroke-miterlimit:4;" d="M -1.489583 1.510417 L 90.489583 1.510417 L 90.489583 61.510417 L -1.489583 61.510417 Z M -1.489583 1.510417 " transform="matrix(-0.075,0,0,0.075,6.9,0)"/>
<path style="fill:none;stroke-width:3;stroke-linecap:butt;stroke-linejoin:miter;stroke:rgb(0%,0%,0%);stroke-opacity:1;stroke-miterlimit:4;" d="M -1.489583 1.479167 L 90.489583 1.479167 L 90.489583 61.479167 L -1.489583 61.479167 Z M -1.489583 1.479167 " transform="matrix(-0.075,0,0,0.075,6.9,5.1)"/>
<path style="fill:none;stroke-width:3;stroke-linecap:butt;stroke-linejoin:miter;stroke:rgb(0%,0%,0%);stroke-opacity:1;stroke-miterlimit:4;" d="M -1.489583 1.489583 L 90.489583 1.489583 L 90.489583 61.489583 L -1.489583 61.489583 Z M -1.489583 1.489583 " transform="matrix(-0.075,0,0,0.075,6.9,10.275)"/>
</g>
</svg>
