
<svg xmlns="http://www.w3.org/2000/svg" xmlns:xlink="http://www.w3.org/1999/xlink" width="20px" height="20px" viewBox="0 0 20 20" version="1.1">
<g id="surface1">
<path style="fill:none;stroke-width:3;stroke-linecap:butt;stroke-linejoin:miter;stroke:rgb(0%,0%,0%);stroke-opacity:1;stroke-miterlimit:4;" d="M 198.484375 198.484375 L 225.515625 198.484375 L 225.515625 258.484375 L 198.484375 258.484375 Z M 198.484375 198.484375 " transform="matrix(-0.1,0.000000000000000012,-0.000000000000000012,-0.1,39.7,39.7)"/>
<path style="fill:none;stroke-width:3;stroke-linecap:butt;stroke-linejoin:miter;stroke:rgb(0%,0%,0%);stroke-opacity:1;stroke-miterlimit:4;" d="M 198.484375 129.507813 L 225.515625 129.507813 L 225.515625 189.507813 L 198.484375 189.507813 Z M 198.484375 129.507813 " transform="matrix(-0.1,0.000000000000000012,-0.000000000000000012,-0.1,39.7,25.9)"/>
<path style="fill:none;stroke-width:3;stroke-linecap:butt;stroke-linejoin:miter;stroke:rgb(0%,0%,0%);stroke-opacity:1;stroke-miterlimit:4;" d="M 198.484375 59.507812 L 225.515625 59.507812 L 225.515625 117.515625 L 198.484375 117.515625 Z M 198.484375 59.507812 " transform="matrix(-0.1,0.000000000000000012,-0.000000000000000012,-0.1,39.7,11.9)"/>
<path style="fill:none;stroke-width:3;stroke-linecap:butt;stroke-linejoin:miter;stroke:rgb(0%,0%,0%);stroke-opacity:1;stroke-miterlimit:4;" d="M 75.507812 1.484375 L 75.507812 28.515625 L 1.484375 28.515625 L 1.484375 1.484375 Z M 75.507812 1.484375 " transform="matrix(0.1,0,0,0.1,0,0)"/>
<path style="fill:none;stroke-width:3;stroke-linecap:butt;stroke-linejoin:miter;stroke:rgb(0%,0%,0%);stroke-opacity:1;stroke-miterlimit:4;" d="M 158.515625 1.484375 L 158.515625 28.515625 L 84.492188 28.515625 L 84.492188 1.484375 Z M 158.515625 1.484375 " transform="matrix(0.1,0,0,0.1,0,0)"/>
<path style="fill:none;stroke-width:3;stroke-linecap:butt;stroke-linejoin:miter;stroke:rgb(0%,0%,0%);stroke-opacity:1;stroke-miterlimit:4;" d="M 158.484375 198.484375 L 315.515625 198.484375 L 315.515625 352.507813 L 158.484375 352.507813 Z M 158.484375 198.484375 " transform="matrix(-0.1,0.000000000000000012,-0.000000000000000012,-0.1,31.7,39.7)"/>
</g>
</svg>
