<svg xmlns="http://www.w3.org/2000/svg" xmlns:xlink="http://www.w3.org/1999/xlink" width="20" height="20" version="1.1" viewBox="0 0 20 20"><g id="surface1"><path style="fill:none;stroke-width:3;stroke-linecap:butt;stroke-linejoin:miter;stroke:#000;stroke-opacity:1;stroke-miterlimit:4" d="M -1.515625 1.484375 L 25.515625 1.484375 L 25.515625 61.484375 L -1.515625 61.484375 Z M -1.515625 1.484375" transform="matrix(-0.1,0,0,0.1,19.7,0.0000000089407)"/><path style="fill:none;stroke-width:3;stroke-linecap:butt;stroke-linejoin:miter;stroke:#000;stroke-opacity:1;stroke-miterlimit:4" d="M -1.515625 1.507812 L 25.515625 1.507812 L 25.515625 61.507812 L -1.515625 61.507812 Z M -1.515625 1.507812" transform="matrix(-0.1,0,0,0.1,19.7,6.9)"/><path style="fill:none;stroke-width:3;stroke-linecap:butt;stroke-linejoin:miter;stroke:#000;stroke-opacity:1;stroke-miterlimit:4" d="M -1.515625 1.507812 L 25.515625 1.507812 L 25.515625 59.515625 L -1.515625 59.515625 Z M -1.515625 1.507812" transform="matrix(-0.1,0,0,0.1,19.7,13.9)"/><path style="fill:none;stroke-width:3;stroke-linecap:butt;stroke-linejoin:miter;stroke:#000;stroke-opacity:1;stroke-miterlimit:4" d="M 75.507812 198.515625 L 75.507812 171.484375 L 1.484375 171.484375 L 1.484375 198.515625 Z M 75.507812 198.515625" transform="matrix(0.1,0,0,0.1,0,0)"/><path style="fill:none;stroke-width:3;stroke-linecap:butt;stroke-linejoin:miter;stroke:#000;stroke-opacity:1;stroke-miterlimit:4" d="M 158.515625 198.515625 L 158.515625 171.484375 L 84.492188 171.484375 L 84.492188 198.515625 Z M 158.515625 198.515625" transform="matrix(0.1,0,0,0.1,0,0)"/><path style="fill:none;stroke-width:3;stroke-linecap:butt;stroke-linejoin:miter;stroke:#000;stroke-opacity:1;stroke-miterlimit:4" d="M -1.515625 1.484375 L 155.515625 1.484375 L 155.515625 155.507812 L -1.515625 155.507812 Z M -1.515625 1.484375" transform="matrix(-0.1,0,0,0.1,15.7,0.0000000089407)"/></g></svg>