
<svg xmlns="http://www.w3.org/2000/svg" xmlns:xlink="http://www.w3.org/1999/xlink" width="20px" height="20px" viewBox="0 0 20 20" version="1.1">
<g id="surface1">
<path style="fill:none;stroke-width:3;stroke-linecap:butt;stroke-linejoin:miter;stroke:rgb(0%,0%,0%);stroke-opacity:1;stroke-miterlimit:4;" d="M 1.484375 1.484375 L 88.505859 1.484375 L 88.505859 198.515625 L 1.484375 198.515625 Z M 1.484375 1.484375 " transform="matrix(0.105263,0,0,0.1,0,0)"/>
<path style="fill:none;stroke-width:3;stroke-linecap:butt;stroke-linejoin:miter;stroke:rgb(0%,0%,0%);stroke-opacity:1;stroke-miterlimit:4;" d="M 101.494141 2.5 L 188.515625 2.5 L 188.515625 89.492188 L 101.494141 89.492188 Z M 101.494141 2.5 " transform="matrix(0.105263,0,0,0.1,0,0)"/>
<path style="fill:none;stroke-width:3;stroke-linecap:butt;stroke-linejoin:miter;stroke:rgb(0%,0%,0%);stroke-opacity:1;stroke-miterlimit:4;" d="M 101.494141 102.5 L 138.492188 102.5 L 138.492188 198.515625 L 101.494141 198.515625 Z M 101.494141 102.5 " transform="matrix(0.105263,0,0,0.1,0,0)"/>
<path style="fill:none;stroke-width:3;stroke-linecap:butt;stroke-linejoin:miter;stroke:rgb(0%,0%,0%);stroke-opacity:1;stroke-miterlimit:4;" d="M 151.517578 102.5 L 188.515625 102.5 L 188.515625 144.492188 L 151.517578 144.492188 Z M 151.517578 102.5 " transform="matrix(0.105263,0,0,0.1,0,0)"/>
<path style="fill:none;stroke-width:3;stroke-linecap:butt;stroke-linejoin:miter;stroke:rgb(0%,0%,0%);stroke-opacity:1;stroke-miterlimit:4;" d="M 151.517578 155.507812 L 188.515625 155.507812 L 188.515625 197.5 L 151.517578 197.5 Z M 151.517578 155.507812 " transform="matrix(0.105263,0,0,0.1,0,0)"/>
</g>
</svg>
