<svg xmlns="http://www.w3.org/2000/svg" xmlns:xlink="http://www.w3.org/1999/xlink" width="20" height="20" version="1.1" viewBox="0 0 20 20"><g id="surface1"><path style="fill:none;stroke-width:3;stroke-linecap:butt;stroke-linejoin:miter;stroke:#000;stroke-opacity:1;stroke-miterlimit:4" d="M 1.484375 1.484375 L 93.515625 1.484375 L 93.515625 198.515625 L 1.484375 198.515625 Z M 1.484375 1.484375" transform="matrix(0.1,0,0,0.1,0,0)"/><path style="fill:none;stroke-width:3;stroke-linecap:butt;stroke-linejoin:miter;stroke:#000;stroke-opacity:1;stroke-miterlimit:4" d="M 106.484375 1.484375 L 198.515625 1.484375 L 198.515625 61.484375 L 106.484375 61.484375 Z M 106.484375 1.484375" transform="matrix(0.1,0,0,0.1,0,0)"/><path style="fill:none;stroke-width:3;stroke-linecap:butt;stroke-linejoin:miter;stroke:#000;stroke-opacity:1;stroke-miterlimit:4" d="M 106.484375 69.492188 L 198.515625 69.492188 L 198.515625 129.492188 L 106.484375 129.492188 Z M 106.484375 69.492188" transform="matrix(0.1,0,0,0.1,0,0)"/><path style="fill:none;stroke-width:3;stroke-linecap:butt;stroke-linejoin:miter;stroke:#000;stroke-opacity:1;stroke-miterlimit:4" d="M 106.484375 138.515625 L 198.515625 138.515625 L 198.515625 198.515625 L 106.484375 198.515625 Z M 106.484375 138.515625" transform="matrix(0.1,0,0,0.1,0,0)"/></g></svg>