
<svg xmlns="http://www.w3.org/2000/svg" xmlns:xlink="http://www.w3.org/1999/xlink" width="20px" height="20px" viewBox="0 0 20 20" version="1.1">
<g id="surface1">
<path style="fill:none;stroke-width:3;stroke-linecap:butt;stroke-linejoin:miter;stroke:rgb(0%,0%,0%);stroke-opacity:1;stroke-miterlimit:4;" d="M 1.484375 1.484375 L 93.515625 1.484375 L 93.515625 198.515625 L 1.484375 198.515625 Z M 1.484375 1.484375 " transform="matrix(0,0.1,0.1,0,0,0)"/>
<path style="fill:none;stroke-width:3;stroke-linecap:butt;stroke-linejoin:miter;stroke:rgb(0%,0%,0%);stroke-opacity:1;stroke-miterlimit:4;" d="M 1.484375 1.484375 L 93.515625 1.484375 L 93.515625 61.484375 L 1.484375 61.484375 Z M 1.484375 1.484375 " transform="matrix(0,0.1,0.1,0,0,10.5)"/>
<path style="fill:none;stroke-width:3;stroke-linecap:butt;stroke-linejoin:miter;stroke:rgb(0%,0%,0%);stroke-opacity:1;stroke-miterlimit:4;" d="M 1.484375 1.492188 L 93.515625 1.492188 L 93.515625 61.492188 L 1.484375 61.492188 Z M 1.484375 1.492188 " transform="matrix(0,0.1,0.1,0,6.8,10.5)"/>
<path style="fill:none;stroke-width:3;stroke-linecap:butt;stroke-linejoin:miter;stroke:rgb(0%,0%,0%);stroke-opacity:1;stroke-miterlimit:4;" d="M 1.484375 1.515625 L 93.515625 1.515625 L 93.515625 61.515625 L 1.484375 61.515625 Z M 1.484375 1.515625 " transform="matrix(0,0.1,0.1,0,13.7,10.5)"/>
</g>
</svg>
