<svg xmlns="http://www.w3.org/2000/svg" xmlns:xlink="http://www.w3.org/1999/xlink" width="20" height="20" version="1.1" viewBox="0 0 20 20"><g id="surface1"><path style="fill:none;stroke-width:3;stroke-linecap:butt;stroke-linejoin:miter;stroke:#000;stroke-opacity:1;stroke-miterlimit:4" d="M -1.515625 -1.515625 L 90.515625 -1.515625 L 90.515625 195.515625 L -1.515625 195.515625 Z M -1.515625 -1.515625" transform="matrix(0,-0.1,-0.1,0,19.7,19.7)"/><path style="fill:none;stroke-width:3;stroke-linecap:butt;stroke-linejoin:miter;stroke:#000;stroke-opacity:1;stroke-miterlimit:4" d="M -1.515625 -1.515625 L 90.515625 -1.515625 L 90.515625 58.484375 L -1.515625 58.484375 Z M -1.515625 -1.515625" transform="matrix(0,-0.1,-0.1,0,19.7,9.2)"/><path style="fill:none;stroke-width:3;stroke-linecap:butt;stroke-linejoin:miter;stroke:#000;stroke-opacity:1;stroke-miterlimit:4" d="M -1.515625 -1.507812 L 90.515625 -1.507812 L 90.515625 58.492188 L -1.515625 58.492188 Z M -1.515625 -1.507812" transform="matrix(0,-0.1,-0.1,0,12.9,9.2)"/><path style="fill:none;stroke-width:3;stroke-linecap:butt;stroke-linejoin:miter;stroke:#000;stroke-opacity:1;stroke-miterlimit:4" d="M -1.515625 -1.484375 L 90.515625 -1.484375 L 90.515625 58.515625 L -1.515625 58.515625 Z M -1.515625 -1.484375" transform="matrix(0,-0.1,-0.1,0,6,9.2)"/></g></svg>