<svg xmlns="http://www.w3.org/2000/svg" xmlns:xlink="http://www.w3.org/1999/xlink" width="20" height="20" version="1.1" viewBox="0 0 20 20"><g id="surface1"><path style="fill:none;stroke-width:3;stroke-linecap:butt;stroke-linejoin:miter;stroke:#fff;stroke-opacity:1;stroke-miterlimit:4" d="M 5.001172 19.503516 L 15.003516 19.503516 C 16.92793 19.503516 18.495117 21.063281 18.495117 22.996875 L 18.495117 43.003125 C 18.495117 44.936719 16.92793 46.496484 15.003516 46.496484 L 5.001172 46.496484 C 3.065234 46.496484 1.498047 44.936719 1.498047 43.003125 L 1.498047 22.996875 C 1.498047 21.063281 3.065234 19.503516 5.001172 19.503516 Z M 5.001172 19.503516" transform="matrix(0.338983,0,0,0.30303,0,0)"/><path style="fill:none;stroke-width:3;stroke-linecap:butt;stroke-linejoin:miter;stroke:#fff;stroke-opacity:1;stroke-miterlimit:4" d="M 17.999609 20.496094 L 34.25918 2.436328 C 34.869922 1.753125 35.999219 2.191406 35.999219 3.106641 L 35.999219 62.893359 C 35.999219 63.808594 34.869922 64.246875 34.25918 63.563672 L 17.999609 45.503906" transform="matrix(0.338983,0,0,0.30303,0,0)"/><path style="stroke:none;fill-rule:nonzero;fill:#fff;fill-opacity:1" d="M 19.660156 10.304688 L 20 10.304688 L 20 10 L 19.660156 10 Z M 14.578125 10.304688 L 14.578125 10 L 14.238281 10 L 14.238281 10.304688 Z M 19.660156 10.605469 L 19.660156 10.910156 L 20 10.910156 L 20 10.605469 Z M 14.578125 10.605469 L 14.238281 10.605469 L 14.238281 10.910156 L 14.578125 10.910156 Z M 19.660156 10 L 14.578125 10 L 14.578125 10.605469 L 19.660156 10.605469 Z M 20 10.605469 L 20 10.304688 L 19.320312 10.304688 L 19.320312 10.605469 Z M 14.578125 10.910156 L 19.660156 10.910156 L 19.660156 10.304688 L 14.578125 10.304688 Z M 14.238281 10.304688 L 14.238281 10.605469 L 14.914062 10.605469 L 14.914062 10.304688 Z M 14.238281 10.304688"/></g></svg>