<svg width="200" height="200" viewBox="0 0 200 200" fill="none" xmlns="http://www.w3.org/2000/svg">
<mask id="path-1-inside-1" fill="white">
<path fill-rule="evenodd" clip-rule="evenodd" d="M27.4929 25L100.421 92.8572L173.349 25H27.4929ZM173.349 175L100.421 107.143L27.4927 175H173.349ZM108 100.794L180 32.0615V169.526L108 100.794ZM20 169.526L91.9998 100.794L20 32.0615V169.526Z"/>
</mask>
<path fill-rule="evenodd" clip-rule="evenodd" d="M27.4929 25L100.421 92.8572L173.349 25H27.4929ZM173.349 175L100.421 107.143L27.4927 175H173.349ZM108 100.794L180 32.0615V169.526L108 100.794ZM20 169.526L91.9998 100.794L20 32.0615V169.526Z" fill="white"/>
<path d="M100.421 92.8572L97.0152 96.5177L100.421 99.6868L103.827 96.5177L100.421 92.8572ZM27.4929 25V20H14.7792L24.0869 28.6605L27.4929 25ZM173.349 25L176.755 28.6605L186.063 20H173.349V25ZM100.421 107.143L103.827 103.482L100.421 100.313L97.015 103.482L100.421 107.143ZM173.349 175V180H186.063L176.755 171.339L173.349 175ZM27.4927 175L24.0867 171.339L14.779 180H27.4927V175ZM180 32.0615H185V20.3759L176.547 28.4448L180 32.0615ZM108 100.794L104.548 97.177L100.759 100.794L104.548 104.41L108 100.794ZM180 169.526L176.547 173.143L185 181.211V169.526H180ZM91.9998 100.794L95.4524 104.41L99.241 100.794L95.4524 97.177L91.9998 100.794ZM20 169.526H15V181.211L23.4525 173.143L20 169.526ZM20 32.0615L23.4525 28.4448L15 20.3759V32.0615H20ZM103.827 89.1967L30.8988 21.3395L24.0869 28.6605L97.0152 96.5177L103.827 89.1967ZM169.943 21.3395L97.0152 89.1967L103.827 96.5177L176.755 28.6605L169.943 21.3395ZM27.4929 30H173.349V20H27.4929V30ZM97.015 110.803L169.943 178.661L176.755 171.339L103.827 103.482L97.015 110.803ZM30.8987 178.661L103.827 110.803L97.015 103.482L24.0867 171.339L30.8987 178.661ZM173.349 170H27.4927V180H173.349V170ZM176.547 28.4448L104.548 97.177L111.453 104.41L183.453 35.6782L176.547 28.4448ZM185 169.526V32.0615H175V169.526H185ZM104.548 104.41L176.547 173.143L183.453 165.909L111.453 97.177L104.548 104.41ZM88.5473 97.177L16.5475 165.909L23.4525 173.143L95.4524 104.41L88.5473 97.177ZM16.5475 35.6781L88.5473 104.41L95.4524 97.177L23.4525 28.4448L16.5475 35.6781ZM25 169.526V32.0615H15V169.526H25Z" fill="black" mask="url(#path-1-inside-1)"/>
</svg>
