<svg width="200" height="200" viewBox="0 0 200 200" fill="none" xmlns="http://www.w3.org/2000/svg">
<mask id="path-1-inside-1" fill="white">
<path fill-rule="evenodd" clip-rule="evenodd" d="M103.75 20H175V180H103.75V20ZM25 20H96.25V70.4H25V20ZM96.25 74.4H25V124.8H96.25V74.4ZM25 129.6H96.25V180H25V129.6Z"/>
</mask>
<path fill-rule="evenodd" clip-rule="evenodd" d="M103.75 20H175V180H103.75V20ZM25 20H96.25V70.4H25V20ZM96.25 74.4H25V124.8H96.25V74.4ZM25 129.6H96.25V180H25V129.6Z" fill="white"/>
<path d="M175 20V15H180V20H175ZM103.75 20H98.75V15H103.75V20ZM175 180H180V185H175V180ZM103.75 180V185H98.75V180H103.75ZM96.25 20V15H101.25V20H96.25ZM25 20H20V15H25V20ZM96.25 70.4H101.25V75.4H96.25V70.4ZM25 70.4V75.4H20V70.4H25ZM25 74.4H20V69.4H25V74.4ZM96.25 74.4V69.4H101.25V74.4H96.25ZM25 124.8V129.8H20V124.8H25ZM96.25 124.8H101.25V129.8H96.25V124.8ZM96.25 129.6V124.6H101.25V129.6H96.25ZM25 129.6H20V124.6H25V129.6ZM96.25 180H101.25V185H96.25V180ZM25 180V185H20V180H25ZM175 25H103.75V15H175V25ZM170 180V20H180V180H170ZM103.75 175H175V185H103.75V175ZM108.75 20V180H98.75V20H108.75ZM96.25 25H25V15H96.25V25ZM91.25 70.4V20H101.25V70.4H91.25ZM25 65.4H96.25V75.4H25V65.4ZM30 20V70.4H20V20H30ZM25 69.4H96.25V79.4H25V69.4ZM20 124.8V74.4H30V124.8H20ZM96.25 129.8H25V119.8H96.25V129.8ZM101.25 74.4V124.8H91.25V74.4H101.25ZM96.25 134.6H25V124.6H96.25V134.6ZM91.25 180V129.6H101.25V180H91.25ZM25 175H96.25V185H25V175ZM30 129.6V180H20V129.6H30Z" fill="black" mask="url(#path-1-inside-1)"/>
</svg>
