<svg xmlns="http://www.w3.org/2000/svg" width="200" height="200" fill="none" viewBox="0 0 200 200"><rect width="27" height="60" x="1.5" y="-1.5" stroke="#000" stroke-width="3" transform="matrix(1 0 0 -1 8.9407e-08 197)"/><rect width="27" height="60" x="1.5" y="-1.5" stroke="#000" stroke-width="3" transform="matrix(1 0 0 -1 8.9407e-08 128)"/><rect width="27" height="58" x="1.5" y="-1.5" stroke="#000" stroke-width="3" transform="matrix(1 0 0 -1 8.9407e-08 58)"/><path stroke="#000" stroke-width="3" d="M124.5 1.5V28.5L198.5 28.5V1.5L124.5 1.5Z"/><path stroke="#000" stroke-width="3" d="M41.5 1.5V28.5L115.5 28.5V1.5L41.5 1.5Z"/><rect width="157" height="154" x="1.5" y="-1.5" stroke="#000" stroke-width="3" transform="matrix(1 0 0 -1 40 197)"/></svg>