<svg width="200" height="200" viewBox="0 0 200 200" fill="none" xmlns="http://www.w3.org/2000/svg">
<rect x="1.5" y="-1.5" width="27" height="60" transform="matrix(1 0 0 -1 8.9407e-08 197)" stroke="black" stroke-width="3"/>
<rect x="1.5" y="-1.5" width="27" height="60" transform="matrix(1 0 0 -1 8.9407e-08 128)" stroke="black" stroke-width="3"/>
<rect x="1.5" y="-1.5" width="27" height="58" transform="matrix(1 0 0 -1 8.9407e-08 58)" stroke="black" stroke-width="3"/>
<path d="M124.5 1.5V28.5L198.5 28.5V1.5L124.5 1.5Z" stroke="black" stroke-width="3"/>
<path d="M41.5 1.5V28.5L115.5 28.5V1.5L41.5 1.5Z" stroke="black" stroke-width="3"/>
<rect x="1.5" y="-1.5" width="157" height="154" transform="matrix(1 0 0 -1 40 197)" stroke="black" stroke-width="3"/>
</svg>
