<svg xmlns="http://www.w3.org/2000/svg" width="59" height="66" fill="none" viewBox="0 0 59 66"><rect width="17" height="27" x="1.5" y="19.5" stroke="#fff" stroke-width="3" rx="3.5"/><path stroke="#fff" stroke-width="3" d="M18 20.5L34.2567 2.437C34.8698 1.75578 36 2.18947 36 3.10596V62.894C36 63.8105 34.8698 64.2442 34.2567 63.563L18 45.5"/><path fill="#fff" d="M50 42H49V43H50V42ZM50 35H51V34H50V35ZM51 42V43H52V42H51ZM51 35V34H50V35H51ZM58 35V36H59V35H58ZM58 34H59V33H58V34ZM51 34H50V35H51V34ZM51 27H52V26H51V27ZM50 27V26H49V27H50ZM50 34V35H51V34H50ZM43 34V33H42V34H43ZM43 35H42V36H43V35ZM51 42V35H49V42H51ZM51 41H50V43H51V41ZM50 35V42H52V35H50ZM58 34H51V36H58V34ZM57 34V35H59V34H57ZM51 35H58V33H51V35ZM50 27V34H52V27H50ZM50 28H51V26H50V28ZM51 34V27H49V34H51ZM43 35H50V33H43V35ZM44 35V34H42V35H44ZM50 34H43V36H50V34Z"/></svg>