<svg xmlns="http://www.w3.org/2000/svg" width="71" height="68" fill="none" viewBox="0 0 71 68"><g filter="url(#filter0_d)"><path fill="#fff" fill-rule="evenodd" d="M4.5 19V41C4.5 43.2091 6.29086 45 8.5 45H16.9C17.9271 45 18.9149 45.3951 19.6586 46.1035L32.7414 58.5632C35.288 60.9886 39.5 59.1835 39.5 55.6667V4.33334C39.5 0.816557 35.288 -0.98858 32.7414 1.43678L19.6586 13.8966C18.9149 14.6049 17.9271 15 16.9 15H8.5C6.29086 15 4.5 16.7909 4.5 19ZM45.7352 42.5741C48.5561 41.8182 51.0233 40.0985 52.7086 37.7134C54.3939 35.3284 55.1909 32.4285 54.9613 29.5171C54.7317 26.6057 53.4899 23.8667 51.4515 21.7753C49.4131 19.6839 46.7068 18.3723 43.8023 18.068L43.4317 21.6056C45.5098 21.8232 47.446 22.7616 48.9043 24.2579C50.3627 25.7542 51.2511 27.7138 51.4154 29.7968C51.5797 31.8797 51.0095 33.9544 49.8038 35.6608C48.598 37.3672 46.8329 38.5976 44.8146 39.1384L45.7352 42.5741ZM62.1612 44.7826C58.852 49.2958 54.1242 52.5682 48.7347 54.0758L46.7143 46.8531C50.487 45.7977 53.7964 43.5071 56.1128 40.3478C58.4293 37.1886 59.6187 33.3435 59.4907 29.4281C59.3626 25.5127 57.9246 21.7535 55.4067 18.7524C52.8889 15.7512 49.4369 13.6816 45.6034 12.875L47.1477 5.53571C52.6241 6.68804 57.5556 9.64457 61.1525 13.932C64.7494 18.2194 66.8038 23.5896 66.9866 29.183C67.1695 34.7764 65.4704 40.2694 62.1612 44.7826Z" clip-rule="evenodd"/></g><defs><filter id="filter0_d" width="70.5" height="67.349" x=".5" y=".325" color-interpolation-filters="sRGB" filterUnits="userSpaceOnUse"><feFlood flood-opacity="0" result="BackgroundImageFix"/><feColorMatrix in="SourceAlpha" type="matrix" values="0 0 0 0 0 0 0 0 0 0 0 0 0 0 0 0 0 0 127 0"/><feOffset dy="4"/><feGaussianBlur stdDeviation="2"/><feColorMatrix type="matrix" values="0 0 0 0 0 0 0 0 0 0 0 0 0 0 0 0 0 0 0.15 0"/><feBlend in2="BackgroundImageFix" mode="normal" result="effect1_dropShadow"/><feBlend in="SourceGraphic" in2="effect1_dropShadow" mode="normal" result="shape"/></filter></defs></svg>