<svg width="200" height="200" viewBox="0 0 200 200" fill="none" xmlns="http://www.w3.org/2000/svg">
<mask id="path-1-inside-1" fill="white">
<path fill-rule="evenodd" clip-rule="evenodd" d="M47.5 180H25L25 129.6H47.5V180ZM47.5 124.8H25L25 74.4H47.5L47.5 124.8ZM25 68.8H47.5V20H25V68.8ZM117.25 44V20H175V44H117.25ZM55 20V44H112.75V20H55ZM175 180H55L55 54.4L175 54.4V180Z"/>
</mask>
<path fill-rule="evenodd" clip-rule="evenodd" d="M47.5 180H25L25 129.6H47.5V180ZM47.5 124.8H25L25 74.4H47.5L47.5 124.8ZM25 68.8H47.5V20H25V68.8ZM117.25 44V20H175V44H117.25ZM55 20V44H112.75V20H55ZM175 180H55L55 54.4L175 54.4V180Z" fill="white"/>
<path d="M25 180V185H20V180L25 180ZM47.5 180H52.5V185H47.5V180ZM25 129.6H20V124.6H25V129.6ZM47.5 129.6V124.6H52.5V129.6H47.5ZM25 124.8V129.8H20V124.8H25ZM47.5 124.8H52.5V129.8H47.5V124.8ZM25 74.4H20V69.4H25V74.4ZM47.5 74.4V69.4H52.5V74.4H47.5ZM47.5 68.8H52.5V73.8H47.5V68.8ZM25 68.8V73.8H20V68.8H25ZM47.5 20L47.5 15H52.5L52.5 20H47.5ZM25 20H20V15H25L25 20ZM117.25 20H112.25V15H117.25V20ZM117.25 44V49H112.25V44H117.25ZM175 20V15H180V20H175ZM175 44H180V49H175V44ZM55 44V49H50V44H55ZM55 20H50L50 15H55L55 20ZM112.75 44H117.75V49H112.75V44ZM112.75 20V15H117.75V20H112.75ZM55 180V185H50V180H55ZM175 180H180V185H175V180ZM55 54.4H50V49.4H55V54.4ZM175 54.4V49.4H180V54.4H175ZM25 175H47.5V185H25V175ZM30 129.6L30 180L20 180L20 129.6H30ZM47.5 134.6H25V124.6H47.5V134.6ZM42.5 180V129.6H52.5V180H42.5ZM25 119.8H47.5V129.8H25V119.8ZM30 74.4L30 124.8H20L20 74.4H30ZM47.5 79.4H25V69.4H47.5V79.4ZM42.5 124.8L42.5 74.4H52.5L52.5 124.8H42.5ZM47.5 73.8H25V63.8H47.5V73.8ZM52.5 20V68.8H42.5V20H52.5ZM25 15H47.5L47.5 25H25L25 15ZM20 68.8V20H30V68.8H20ZM122.25 20V44H112.25V20H122.25ZM175 25H117.25V15H175V25ZM170 44V20H180V44H170ZM117.25 39H175V49H117.25V39ZM50 44V20H60V44H50ZM112.75 49H55V39H112.75V49ZM117.75 20V44H107.75V20H117.75ZM55 15H112.75V25H55L55 15ZM55 175H175V185H55V175ZM60 54.4L60 180H50L50 54.4H60ZM175 59.4L55 59.4V49.4H175V59.4ZM170 180V54.4H180V180H170Z" fill="black" mask="url(#path-1-inside-1)"/>
</svg>
