<svg xmlns="http://www.w3.org/2000/svg" width="200" height="200" fill="none" viewBox="0 0 200 200"><mask id="path-1-inside-1" fill="#fff"><path fill-rule="evenodd" d="M152.5 20H175V70.4H152.5V20ZM152.5 75.2H175V125.6H152.5V75.2ZM175 131.2H152.5V180H175V131.2ZM82.75 156V180H25V156H82.75ZM145 180V156H87.25V180H145ZM25 20L145 20V145.6H25V20Z" clip-rule="evenodd"/></mask><path fill="#fff" fill-rule="evenodd" d="M152.5 20H175V70.4H152.5V20ZM152.5 75.2H175V125.6H152.5V75.2ZM175 131.2H152.5V180H175V131.2ZM82.75 156V180H25V156H82.75ZM145 180V156H87.25V180H145ZM25 20L145 20V145.6H25V20Z" clip-rule="evenodd"/><path fill="#000" d="M175 20V15H180V20H175ZM152.5 20H147.5V15L152.5 15V20ZM175 70.4H180V75.4H175V70.4ZM152.5 70.4V75.4H147.5V70.4H152.5ZM175 75.2V70.2H180V75.2H175ZM152.5 75.2H147.5V70.2H152.5V75.2ZM175 125.6H180V130.6H175V125.6ZM152.5 125.6V130.6H147.5V125.6H152.5ZM152.5 131.2H147.5V126.2H152.5V131.2ZM175 131.2V126.2H180V131.2H175ZM152.5 180V185H147.5V180H152.5ZM175 180H180V185H175V180ZM82.75 180H87.75V185H82.75V180ZM82.75 156V151H87.75V156H82.75ZM25 180V185H20V180H25ZM25 156H20V151H25V156ZM145 156V151H150V156H145ZM145 180H150V185H145V180ZM87.25 156H82.25V151H87.25V156ZM87.25 180V185H82.25V180H87.25ZM145 20V15H150V20H145ZM25 20H20V15L25 15V20ZM145 145.6H150V150.6H145V145.6ZM25 145.6V150.6H20V145.6H25ZM175 25H152.5V15H175V25ZM170 70.4V20H180V70.4H170ZM152.5 65.4H175V75.4H152.5V65.4ZM157.5 20V70.4H147.5V20H157.5ZM175 80.2H152.5V70.2H175V80.2ZM170 125.6V75.2H180V125.6H170ZM152.5 120.6H175V130.6H152.5V120.6ZM157.5 75.2V125.6H147.5V75.2H157.5ZM152.5 126.2H175V136.2H152.5V126.2ZM147.5 180V131.2H157.5V180H147.5ZM175 185H152.5V175H175V185ZM180 131.2V180H170V131.2H180ZM77.75 180V156H87.75V180H77.75ZM25 175H82.75V185H25V175ZM30 156V180H20V156H30ZM82.75 161H25V151H82.75V161ZM150 156V180H140V156H150ZM87.25 151H145V161H87.25V151ZM82.25 180V156H92.25V180H82.25ZM145 185H87.25V175H145V185ZM145 25L25 25V15L145 15V25ZM140 145.6V20L150 20V145.6H140ZM25 140.6H145V150.6H25V140.6ZM30 20V145.6H20V20H30Z" mask="url(#path-1-inside-1)"/></svg>