<svg width="200" height="200" viewBox="0 0 200 200" fill="none" xmlns="http://www.w3.org/2000/svg">
<mask id="path-1-inside-1" fill="white">
<path fill-rule="evenodd" clip-rule="evenodd" d="M44 25H20V72.25H44V25ZM44 76.75H20V124H44V76.75ZM20 129.25H44V175H20V129.25ZM118.4 152.5V175H180V152.5H118.4ZM52 175V152.5H113.6V175H52ZM180 25H52V142.75H180V25Z"/>
</mask>
<path fill-rule="evenodd" clip-rule="evenodd" d="M44 25H20V72.25H44V25ZM44 76.75H20V124H44V76.75ZM20 129.25H44V175H20V129.25ZM118.4 152.5V175H180V152.5H118.4ZM52 175V152.5H113.6V175H52ZM180 25H52V142.75H180V25Z" fill="white"/>
<path d="M20 25V20H15V25H20ZM44 25H49V20H44V25ZM20 72.25H15V77.25H20V72.25ZM44 72.25V77.25H49V72.25H44ZM20 76.75V71.75H15V76.75H20ZM44 76.75H49V71.75H44V76.75ZM20 124H15V129H20V124ZM44 124V129H49V124H44ZM44 129.25H49V124.25H44V129.25ZM20 129.25V124.25H15V129.25H20ZM44 175V180H49V175H44ZM20 175H15V180H20V175ZM118.4 175H113.4V180H118.4V175ZM118.4 152.5V147.5H113.4V152.5H118.4ZM180 175V180H185V175H180ZM180 152.5H185V147.5H180V152.5ZM52 152.5V147.5H47V152.5H52ZM52 175H47V180H52V175ZM113.6 152.5H118.6V147.5H113.6V152.5ZM113.6 175V180H118.6V175H113.6ZM52 25V20H47V25H52ZM180 25H185V20H180V25ZM52 142.75H47V147.75H52V142.75ZM180 142.75V147.75H185V142.75H180ZM20 30H44V20H20V30ZM25 72.25V25H15V72.25H25ZM44 67.25H20V77.25H44V67.25ZM39 25V72.25H49V25H39ZM20 81.75H44V71.75H20V81.75ZM25 124V76.75H15V124H25ZM44 119H20V129H44V119ZM39 76.75V124H49V76.75H39ZM44 124.25H20V134.25H44V124.25ZM49 175V129.25H39V175H49ZM20 180H44V170H20V180ZM15 129.25V175H25V129.25H15ZM123.4 175V152.5H113.4V175H123.4ZM180 170H118.4V180H180V170ZM175 152.5V175H185V152.5H175ZM118.4 157.5H180V147.5H118.4V157.5ZM47 152.5V175H57V152.5H47ZM113.6 147.5H52V157.5H113.6V147.5ZM118.6 175V152.5H108.6V175H118.6ZM52 180H113.6V170H52V180ZM52 30H180V20H52V30ZM57 142.75V25H47V142.75H57ZM180 137.75H52V147.75H180V137.75ZM175 25V142.75H185V25H175Z" fill="black" mask="url(#path-1-inside-1)"/>
</svg>
