<svg xmlns="http://www.w3.org/2000/svg" width="200" height="200" fill="none" viewBox="0 0 200 200"><mask id="path-1-inside-1" fill="#fff"><path fill-rule="evenodd" d="M152.5 180H175V129.6H152.5V180ZM152.5 124.8H175V74.4H152.5V124.8ZM175 68.8L152.5 68.8V20H175V68.8ZM82.75 44V20H25V44H82.75ZM145 20V44H87.25V20H145ZM25 180H145V54.4L25 54.4V180Z" clip-rule="evenodd"/></mask><path fill="#fff" fill-rule="evenodd" d="M152.5 180H175V129.6H152.5V180ZM152.5 124.8H175V74.4H152.5V124.8ZM175 68.8L152.5 68.8V20H175V68.8ZM82.75 44V20H25V44H82.75ZM145 20V44H87.25V20H145ZM25 180H145V54.4L25 54.4V180Z" clip-rule="evenodd"/><path fill="#000" d="M175 180V185H180V180L175 180ZM152.5 180H147.5V185H152.5V180ZM175 129.6H180V124.6H175V129.6ZM152.5 129.6V124.6H147.5V129.6H152.5ZM175 124.8V129.8H180V124.8H175ZM152.5 124.8H147.5V129.8H152.5V124.8ZM175 74.4H180V69.4H175V74.4ZM152.5 74.4V69.4H147.5V74.4H152.5ZM152.5 68.8H147.5V73.8H152.5V68.8ZM175 68.8V73.8H180V68.8H175ZM152.5 20V15H147.5V20H152.5ZM175 20H180V15H175V20ZM82.75 20H87.75V15H82.75V20ZM82.75 44V49H87.75V44H82.75ZM25 20V15H20V20H25ZM25 44H20V49H25V44ZM145 44V49H150V44H145ZM145 20H150V15H145V20ZM87.25 44H82.25V49H87.25V44ZM87.25 20V15H82.25V20H87.25ZM145 180V185H150V180H145ZM25 180H20V185H25V180ZM145 54.4H150V49.4H145V54.4ZM25 54.4V49.4H20V54.4H25ZM175 175H152.5V185H175V175ZM170 129.6V180L180 180V129.6H170ZM152.5 134.6H175V124.6H152.5V134.6ZM157.5 180V129.6H147.5V180H157.5ZM175 119.8H152.5V129.8H175V119.8ZM170 74.4V124.8H180V74.4H170ZM152.5 79.4H175V69.4H152.5V79.4ZM157.5 124.8V74.4H147.5V124.8H157.5ZM152.5 73.8L175 73.8V63.8L152.5 63.8V73.8ZM147.5 20V68.8H157.5V20H147.5ZM175 15H152.5V25H175V15ZM180 68.8V20H170V68.8H180ZM77.75 20V44H87.75V20H77.75ZM25 25H82.75V15H25V25ZM30 44V20H20V44H30ZM82.75 39H25V49H82.75V39ZM150 44V20H140V44H150ZM87.25 49H145V39H87.25V49ZM82.25 20V44H92.25V20H82.25ZM145 15H87.25V25H145V15ZM145 175H25V185H145V175ZM140 54.4V180H150V54.4H140ZM25 59.4L145 59.4V49.4H25V59.4ZM30 180V54.4H20V180H30Z" mask="url(#path-1-inside-1)"/></svg>