<svg xmlns="http://www.w3.org/2000/svg" width="200" height="200" fill="none" viewBox="0 0 200 200"><mask id="path-1-inside-1" fill="#fff"><path fill-rule="evenodd" d="M25 20H70.6853V124H25V20ZM77.5381 20H123.223V124H77.5381V20ZM175 20H129.315V124H175V20ZM25 132H93.5279V180H25V132ZM175 132H106.472V180H175V132Z" clip-rule="evenodd"/></mask><path fill="#fff" fill-rule="evenodd" d="M25 20H70.6853V124H25V20ZM77.5381 20H123.223V124H77.5381V20ZM175 20H129.315V124H175V20ZM25 132H93.5279V180H25V132ZM175 132H106.472V180H175V132Z" clip-rule="evenodd"/><path fill="#000" d="M70.6853 20H75.6853V15H70.6853V20ZM25 20V15H20V20H25ZM70.6853 124V129H75.6853V124H70.6853ZM25 124H20V129H25V124ZM123.223 20H128.223V15H123.223V20ZM77.5381 20V15H72.5381V20H77.5381ZM123.223 124V129H128.223V124H123.223ZM77.5381 124H72.5381V129H77.5381V124ZM129.315 20V15H124.315V20H129.315ZM175 20H180V15H175V20ZM129.315 124H124.315V129H129.315V124ZM175 124V129H180V124H175ZM93.5279 132H98.5279V127H93.5279V132ZM25 132V127H20V132H25ZM93.5279 180V185H98.5279V180H93.5279ZM25 180H20V185H25V180ZM106.472 132V127H101.472V132H106.472ZM175 132H180V127H175V132ZM106.472 180H101.472V185H106.472V180ZM175 180V185H180V180H175ZM70.6853 15H25V25H70.6853V15ZM75.6853 124V20H65.6853V124H75.6853ZM25 129H70.6853V119H25V129ZM20 20V124H30V20H20ZM123.223 15H77.5381V25H123.223V15ZM128.223 124V20H118.223V124H128.223ZM77.5381 129H123.223V119H77.5381V129ZM72.5381 20V124H82.5381V20H72.5381ZM129.315 25H175V15H129.315V25ZM134.315 124V20H124.315V124H134.315ZM175 119H129.315V129H175V119ZM170 20V124H180V20H170ZM93.5279 127H25V137H93.5279V127ZM98.5279 180V132H88.5279V180H98.5279ZM25 185H93.5279V175H25V185ZM20 132V180H30V132H20ZM106.472 137H175V127H106.472V137ZM111.472 180V132H101.472V180H111.472ZM175 175H106.472V185H175V175ZM170 132V180H180V132H170Z" mask="url(#path-1-inside-1)"/></svg>