<svg xmlns="http://www.w3.org/2000/svg" width="200" height="200" fill="none" viewBox="0 0 200 200"><mask id="path-1-inside-1" fill="#fff"><path fill-rule="evenodd" d="M20 175L20 129.315H124V175H20ZM20 122.462L20 76.7766H124L124 122.462H20ZM20 25L20 70.6853H124L124 25H20ZM132 175V106.472L180 106.472V175H132ZM132 25V93.5279L180 93.5279V25H132Z" clip-rule="evenodd"/></mask><path fill="#fff" fill-rule="evenodd" d="M20 175L20 129.315H124V175H20ZM20 122.462L20 76.7766H124L124 122.462H20ZM20 25L20 70.6853H124L124 25H20ZM132 175V106.472L180 106.472V175H132ZM132 25V93.5279L180 93.5279V25H132Z" clip-rule="evenodd"/><path fill="#000" d="M20 129.315V124.315H15V129.315H20ZM20 175H15V180H20V175ZM124 129.315H129V124.315H124V129.315ZM124 175V180H129V175H124ZM20 76.7766V71.7766H15V76.7766H20ZM20 122.462H15L15 127.462H20V122.462ZM124 76.7766H129V71.7766H124V76.7766ZM124 122.462V127.462H129V122.462H124ZM20 70.6853H15V75.6853H20V70.6853ZM20 25V20H15V25H20ZM124 70.6853V75.6853H129V70.6853H124ZM124 25H129V20H124V25ZM132 106.472V101.472H127V106.472H132ZM132 175H127V180H132V175ZM180 106.472H185V101.472H180V106.472ZM180 175V180H185V175H180ZM132 93.5279H127V98.5279H132V93.5279ZM132 25V20H127V25H132ZM180 93.5279V98.5279H185V93.5279H180ZM180 25H185V20H180V25ZM15 129.315L15 175H25L25 129.315H15ZM124 124.315H20V134.315H124V124.315ZM129 175V129.315H119V175H129ZM20 180H124V170H20V180ZM15 76.7766L15 122.462H25L25 76.7766H15ZM124 71.7766H20V81.7766H124V71.7766ZM129 122.462V76.7766H119L119 122.462H129ZM20 127.462H124V117.462H20V127.462ZM25 70.6853L25 25H15L15 70.6853H25ZM124 65.6853H20V75.6853H124V65.6853ZM119 25L119 70.6853H129V25H119ZM20 30H124V20H20L20 30ZM127 106.472L127 175H137V106.472L127 106.472ZM180 101.472L132 101.472V111.472H180V101.472ZM185 175V106.472H175V175H185ZM132 180H180V170H132V180ZM137 93.5279V25H127L127 93.5279L137 93.5279ZM180 88.5279L132 88.5279V98.5279L180 98.5279V88.5279ZM175 25V93.5279H185V25H175ZM132 30H180V20H132V30Z" mask="url(#path-1-inside-1)"/></svg>