<svg xmlns="http://www.w3.org/2000/svg" width="200" height="200" fill="none" viewBox="0 0 200 200"><mask id="path-1-inside-1" fill="#fff"><path fill-rule="evenodd" d="M25 20H96.0526V180H25V20ZM103.947 20.8H175V92.8H103.947V20.8ZM175 100.8H143.421V180H175V100.8ZM103.947 100.8H135.526V136.8H103.947V100.8ZM135.526 143.2H103.947V179.2H135.526V143.2Z" clip-rule="evenodd"/></mask><path fill="#fff" fill-rule="evenodd" d="M25 20H96.0526V180H25V20ZM103.947 20.8H175V92.8H103.947V20.8ZM175 100.8H143.421V180H175V100.8ZM103.947 100.8H135.526V136.8H103.947V100.8ZM135.526 143.2H103.947V179.2H135.526V143.2Z" clip-rule="evenodd"/><path fill="#000" d="M96.0526 20H101.053V15H96.0526V20ZM25 20V15H20V20H25ZM96.0526 180V185H101.053V180H96.0526ZM25 180H20V185H25V180ZM175 20.8H180V15.8H175V20.8ZM103.947 20.8V15.8H98.9474V20.8H103.947ZM175 92.8V97.8H180V92.8H175ZM103.947 92.8H98.9474V97.8H103.947V92.8ZM143.421 100.8V95.8H138.421V100.8H143.421ZM175 100.8H180V95.8H175V100.8ZM143.421 180H138.421V185H143.421V180ZM175 180V185H180V180H175ZM135.526 100.8H140.526V95.8H135.526V100.8ZM103.947 100.8V95.8H98.9474V100.8H103.947ZM135.526 136.8V141.8H140.526V136.8H135.526ZM103.947 136.8H98.9474V141.8H103.947V136.8ZM103.947 143.2V138.2H98.9474V143.2H103.947ZM135.526 143.2H140.526V138.2H135.526V143.2ZM103.947 179.2H98.9474V184.2H103.947V179.2ZM135.526 179.2V184.2H140.526V179.2H135.526ZM96.0526 15H25V25H96.0526V15ZM101.053 180V20H91.0526V180H101.053ZM25 185H96.0526V175H25V185ZM20 20V180H30V20H20ZM175 15.8H103.947V25.8H175V15.8ZM180 92.8V20.8H170V92.8H180ZM103.947 97.8H175V87.8H103.947V97.8ZM98.9474 20.8V92.8H108.947V20.8H98.9474ZM143.421 105.8H175V95.8H143.421V105.8ZM148.421 180V100.8H138.421V180H148.421ZM175 175H143.421V185H175V175ZM170 100.8V180H180V100.8H170ZM135.526 95.8H103.947V105.8H135.526V95.8ZM140.526 136.8V100.8H130.526V136.8H140.526ZM103.947 141.8H135.526V131.8H103.947V141.8ZM98.9474 100.8V136.8H108.947V100.8H98.9474ZM103.947 148.2H135.526V138.2H103.947V148.2ZM108.947 179.2V143.2H98.9474V179.2H108.947ZM135.526 174.2H103.947V184.2H135.526V174.2ZM130.526 143.2V179.2H140.526V143.2H130.526Z" mask="url(#path-1-inside-1)"/></svg>