<svg xmlns="http://www.w3.org/2000/svg" width="200" height="200" fill="none" viewBox="0 0 200 200"><mask id="path-1-inside-1" fill="#fff"><path fill-rule="evenodd" d="M180 103.75V175L20 175V103.75L180 103.75ZM180 25V96.25H129.6V25H180ZM125.6 96.25V25H75.2L75.2 96.25H125.6ZM70.4 25L70.4 96.25L20 96.25V25L70.4 25Z" clip-rule="evenodd"/></mask><path fill="#fff" fill-rule="evenodd" d="M180 103.75V175L20 175V103.75L180 103.75ZM180 25V96.25H129.6V25H180ZM125.6 96.25V25H75.2L75.2 96.25H125.6ZM70.4 25L70.4 96.25L20 96.25V25L70.4 25Z" clip-rule="evenodd"/><path fill="#000" d="M180 175H185V180H180V175ZM180 103.75V98.75H185V103.75H180ZM20 175V180H15V175H20ZM20 103.75H15V98.75H20V103.75ZM180 96.25H185V101.25H180V96.25ZM180 25V20H185V25H180ZM129.6 96.25V101.25H124.6V96.25H129.6ZM129.6 25H124.6V20H129.6V25ZM125.6 25V20H130.6V25H125.6ZM125.6 96.25H130.6V101.25H125.6V96.25ZM75.2 25H70.2V20H75.2V25ZM75.2 96.25V101.25H70.2V96.25H75.2ZM70.4 96.25H75.4V101.25H70.4V96.25ZM70.4 25V20H75.4V25H70.4ZM20 96.25V101.25H15V96.25H20ZM20 25H15V20H20V25ZM175 175V103.75H185V175H175ZM20 170L180 170V180L20 180V170ZM25 103.75V175H15V103.75H25ZM180 108.75L20 108.75V98.75L180 98.75V108.75ZM175 96.25V25H185V96.25H175ZM129.6 91.25H180V101.25H129.6V91.25ZM134.6 25V96.25H124.6V25H134.6ZM180 30H129.6V20H180V30ZM130.6 25V96.25H120.6V25H130.6ZM75.2 20H125.6V30H75.2V20ZM70.2 96.25L70.2 25H80.2L80.2 96.25H70.2ZM125.6 101.25H75.2V91.25H125.6V101.25ZM65.4 96.25L65.4 25H75.4L75.4 96.25H65.4ZM20 91.25L70.4 91.25V101.25L20 101.25V91.25ZM25 25V96.25H15V25H25ZM70.4 30L20 30V20L70.4 20V30Z" mask="url(#path-1-inside-1)"/></svg>