<svg width="200" height="200" viewBox="0 0 200 200" fill="none" xmlns="http://www.w3.org/2000/svg">
<mask id="path-1-inside-1" fill="white">
<path fill-rule="evenodd" clip-rule="evenodd" d="M96.25 20H25V180H96.25V20ZM175 20H103.75V70.4H175V20ZM103.75 74.4H175V124.8H103.75V74.4ZM175 129.6H103.75V180H175V129.6Z"/>
</mask>
<path fill-rule="evenodd" clip-rule="evenodd" d="M96.25 20H25V180H96.25V20ZM175 20H103.75V70.4H175V20ZM103.75 74.4H175V124.8H103.75V74.4ZM175 129.6H103.75V180H175V129.6Z" fill="white"/>
<path d="M25 20V15H20V20H25ZM96.25 20H101.25V15H96.25V20ZM25 180H20V185H25V180ZM96.25 180V185H101.25V180H96.25ZM103.75 20V15H98.75V20H103.75ZM175 20H180V15H175V20ZM103.75 70.4H98.75V75.4H103.75V70.4ZM175 70.4V75.4H180V70.4H175ZM175 74.4H180V69.4H175V74.4ZM103.75 74.4V69.4H98.75V74.4H103.75ZM175 124.8V129.8H180V124.8H175ZM103.75 124.8H98.75V129.8H103.75V124.8ZM103.75 129.6V124.6H98.75V129.6H103.75ZM175 129.6H180V124.6H175V129.6ZM103.75 180H98.75V185H103.75V180ZM175 180V185H180V180H175ZM25 25H96.25V15H25V25ZM30 180V20H20V180H30ZM96.25 175H25V185H96.25V175ZM91.25 20V180H101.25V20H91.25ZM103.75 25H175V15H103.75V25ZM108.75 70.4V20H98.75V70.4H108.75ZM175 65.4H103.75V75.4H175V65.4ZM170 20V70.4H180V20H170ZM175 69.4H103.75V79.4H175V69.4ZM180 124.8V74.4H170V124.8H180ZM103.75 129.8H175V119.8H103.75V129.8ZM98.75 74.4V124.8H108.75V74.4H98.75ZM103.75 134.6H175V124.6H103.75V134.6ZM108.75 180V129.6H98.75V180H108.75ZM175 175H103.75V185H175V175ZM170 129.6V180H180V129.6H170Z" fill="black" mask="url(#path-1-inside-1)"/>
</svg>
