<svg xmlns="http://www.w3.org/2000/svg" width="200" height="200" fill="none" viewBox="0 0 200 200"><mask id="path-1-inside-1" fill="#fff"><path fill-rule="evenodd" d="M20 96.25L20 25L180 25V96.25L20 96.25ZM20 175L20 103.75H70.4V175H20ZM74.4 103.75V175H124.8L124.8 103.75H74.4ZM129.6 175V103.75L180 103.75V175H129.6Z" clip-rule="evenodd"/></mask><path fill="#fff" fill-rule="evenodd" d="M20 96.25L20 25L180 25V96.25L20 96.25ZM20 175L20 103.75H70.4V175H20ZM74.4 103.75V175H124.8L124.8 103.75H74.4ZM129.6 175V103.75L180 103.75V175H129.6Z" clip-rule="evenodd"/><path fill="#000" d="M20 25H15V20H20V25ZM20 96.25V101.25H15V96.25H20ZM180 25V20H185V25H180ZM180 96.25H185V101.25H180V96.25ZM20 103.75H15V98.75H20V103.75ZM20 175V180H15L15 175H20ZM70.4 103.75V98.75H75.4V103.75H70.4ZM70.4 175H75.4V180H70.4V175ZM74.4 175V180H69.4V175H74.4ZM74.4 103.75H69.4V98.75H74.4V103.75ZM124.8 175H129.8V180H124.8V175ZM124.8 103.75V98.75H129.8V103.75H124.8ZM129.6 103.75H124.6V98.75H129.6V103.75ZM129.6 175V180H124.6V175H129.6ZM180 103.75V98.75H185V103.75H180ZM180 175H185V180H180V175ZM25 25L25 96.25H15L15 25H25ZM180 30L20 30V20L180 20V30ZM175 96.25V25H185V96.25H175ZM20 91.25L180 91.25V101.25L20 101.25V91.25ZM25 103.75L25 175H15L15 103.75H25ZM70.4 108.75H20V98.75H70.4V108.75ZM65.4 175V103.75H75.4V175H65.4ZM20 170H70.4V180H20L20 170ZM69.4 175V103.75H79.4V175H69.4ZM124.8 180H74.4V170H124.8V180ZM129.8 103.75V175H119.8L119.8 103.75H129.8ZM74.4 98.75H124.8V108.75H74.4V98.75ZM134.6 103.75V175H124.6L124.6 103.75H134.6ZM180 108.75L129.6 108.75V98.75L180 98.75V108.75ZM175 175V103.75H185V175H175ZM129.6 170H180V180H129.6V170Z" mask="url(#path-1-inside-1)"/></svg>