<svg xmlns="http://www.w3.org/2000/svg" xmlns:xlink="http://www.w3.org/1999/xlink" width="15" height="15" version="1.1" viewBox="0 0 15 15"><g id="surface1"><path style="fill:none;stroke-width:3;stroke-linecap:butt;stroke-linejoin:miter;stroke:#000;stroke-opacity:1;stroke-miterlimit:4" d="M 1.510417 -1.489583 L 28.489583 -1.489583 L 28.489583 58.510417 L 1.510417 58.510417 Z M 1.510417 -1.489583" transform="matrix(0.075,0,0,-0.075,0.00000000670553,14.775)"/><path style="fill:none;stroke-width:3;stroke-linecap:butt;stroke-linejoin:miter;stroke:#000;stroke-opacity:1;stroke-miterlimit:4" d="M 1.510417 -1.479167 L 28.489583 -1.479167 L 28.489583 58.520833 L 1.510417 58.520833 Z M 1.510417 -1.479167" transform="matrix(0.075,0,0,-0.075,0.00000000670553,9.6)"/><path style="fill:none;stroke-width:3;stroke-linecap:butt;stroke-linejoin:miter;stroke:#000;stroke-opacity:1;stroke-miterlimit:4" d="M 1.510417 -1.479167 L 28.489583 -1.479167 L 28.489583 56.489583 L 1.510417 56.489583 Z M 1.510417 -1.479167" transform="matrix(0.075,0,0,-0.075,0.00000000670553,4.35)"/><path style="fill:none;stroke-width:3;stroke-linecap:butt;stroke-linejoin:miter;stroke:#000;stroke-opacity:1;stroke-miterlimit:4" d="M 124.479167 1.510417 L 124.479167 28.489583 L 198.489583 28.489583 L 198.489583 1.510417 Z M 124.479167 1.510417" transform="matrix(0.075,0,0,0.075,0,0)"/><path style="fill:none;stroke-width:3;stroke-linecap:butt;stroke-linejoin:miter;stroke:#000;stroke-opacity:1;stroke-miterlimit:4" d="M 41.510417 1.510417 L 41.510417 28.489583 L 115.520833 28.489583 L 115.520833 1.510417 Z M 41.510417 1.510417" transform="matrix(0.075,0,0,0.075,0,0)"/><path style="fill:none;stroke-width:3;stroke-linecap:butt;stroke-linejoin:miter;stroke:#000;stroke-opacity:1;stroke-miterlimit:4" d="M 1.510417 -1.489583 L 158.489583 -1.489583 L 158.489583 152.520833 L 1.510417 152.520833 Z M 1.510417 -1.489583" transform="matrix(0.075,0,0,-0.075,3,14.775)"/></g></svg>