<svg xmlns="http://www.w3.org/2000/svg" xmlns:xlink="http://www.w3.org/1999/xlink" width="15" height="15" version="1.1" viewBox="0 0 15 15"><g id="surface1"><path style="fill:none;stroke-width:3;stroke-linecap:butt;stroke-linejoin:miter;stroke:#000;stroke-opacity:1;stroke-miterlimit:4" d="M -1.489583 1.510417 L 25.489583 1.510417 L 25.489583 61.510417 L -1.489583 61.510417 Z M -1.489583 1.510417" transform="matrix(-0.075,0,0,0.075,14.775,0.00000000670553)"/><path style="fill:none;stroke-width:3;stroke-linecap:butt;stroke-linejoin:miter;stroke:#000;stroke-opacity:1;stroke-miterlimit:4" d="M -1.489583 1.520833 L 25.489583 1.520833 L 25.489583 61.520833 L -1.489583 61.520833 Z M -1.489583 1.520833" transform="matrix(-0.075,0,0,0.075,14.775,5.175)"/><path style="fill:none;stroke-width:3;stroke-linecap:butt;stroke-linejoin:miter;stroke:#000;stroke-opacity:1;stroke-miterlimit:4" d="M -1.489583 1.520833 L 25.489583 1.520833 L 25.489583 59.489583 L -1.489583 59.489583 Z M -1.489583 1.520833" transform="matrix(-0.075,0,0,0.075,14.775,10.425)"/><path style="fill:none;stroke-width:3;stroke-linecap:butt;stroke-linejoin:miter;stroke:#000;stroke-opacity:1;stroke-miterlimit:4" d="M 75.520833 198.489583 L 75.520833 171.510417 L 1.510417 171.510417 L 1.510417 198.489583 Z M 75.520833 198.489583" transform="matrix(0.075,0,0,0.075,0,0)"/><path style="fill:none;stroke-width:3;stroke-linecap:butt;stroke-linejoin:miter;stroke:#000;stroke-opacity:1;stroke-miterlimit:4" d="M 158.489583 198.489583 L 158.489583 171.510417 L 84.479167 171.510417 L 84.479167 198.489583 Z M 158.489583 198.489583" transform="matrix(0.075,0,0,0.075,0,0)"/><path style="fill:none;stroke-width:3;stroke-linecap:butt;stroke-linejoin:miter;stroke:#000;stroke-opacity:1;stroke-miterlimit:4" d="M -1.489583 1.510417 L 155.489583 1.510417 L 155.489583 155.520833 L -1.489583 155.520833 Z M -1.489583 1.510417" transform="matrix(-0.075,0,0,0.075,11.775,0.00000000670553)"/></g></svg>