
<svg xmlns="http://www.w3.org/2000/svg" xmlns:xlink="http://www.w3.org/1999/xlink" width="15px" height="15px" viewBox="0 0 15 15" version="1.1">
<g id="surface1">
<path style="fill:none;stroke-width:3;stroke-linecap:butt;stroke-linejoin:miter;stroke:rgb(0%,0%,0%);stroke-opacity:1;stroke-miterlimit:4;" d="M 198.510417 198.510417 L 225.489583 198.510417 L 225.489583 258.510417 L 198.510417 258.510417 Z M 198.510417 198.510417 " transform="matrix(-0.075,0.000000000000000009,-0.000000000000000009,-0.075,29.775,29.775)"/>
<path style="fill:none;stroke-width:3;stroke-linecap:butt;stroke-linejoin:miter;stroke:rgb(0%,0%,0%);stroke-opacity:1;stroke-miterlimit:4;" d="M 198.510417 129.520833 L 225.489583 129.520833 L 225.489583 189.520833 L 198.510417 189.520833 Z M 198.510417 129.520833 " transform="matrix(-0.075,0.000000000000000009,-0.000000000000000009,-0.075,29.775,19.425)"/>
<path style="fill:none;stroke-width:3;stroke-linecap:butt;stroke-linejoin:miter;stroke:rgb(0%,0%,0%);stroke-opacity:1;stroke-miterlimit:4;" d="M 198.510417 59.520833 L 225.489583 59.520833 L 225.489583 117.489583 L 198.510417 117.489583 Z M 198.510417 59.520833 " transform="matrix(-0.075,0.000000000000000009,-0.000000000000000009,-0.075,29.775,8.925)"/>
<path style="fill:none;stroke-width:3;stroke-linecap:butt;stroke-linejoin:miter;stroke:rgb(0%,0%,0%);stroke-opacity:1;stroke-miterlimit:4;" d="M 75.520833 1.510417 L 75.520833 28.489583 L 1.510417 28.489583 L 1.510417 1.510417 Z M 75.520833 1.510417 " transform="matrix(0.075,0,0,0.075,0,0)"/>
<path style="fill:none;stroke-width:3;stroke-linecap:butt;stroke-linejoin:miter;stroke:rgb(0%,0%,0%);stroke-opacity:1;stroke-miterlimit:4;" d="M 158.489583 1.510417 L 158.489583 28.489583 L 84.479167 28.489583 L 84.479167 1.510417 Z M 158.489583 1.510417 " transform="matrix(0.075,0,0,0.075,0,0)"/>
<path style="fill:none;stroke-width:3;stroke-linecap:butt;stroke-linejoin:miter;stroke:rgb(0%,0%,0%);stroke-opacity:1;stroke-miterlimit:4;" d="M 158.510417 198.510417 L 315.489583 198.510417 L 315.489583 352.520833 L 158.510417 352.520833 Z M 158.510417 198.510417 " transform="matrix(-0.075,0.000000000000000009,-0.000000000000000009,-0.075,23.775,29.775)"/>
</g>
</svg>
