<svg xmlns="http://www.w3.org/2000/svg" xmlns:xlink="http://www.w3.org/1999/xlink" width="15" height="15" version="1.1" viewBox="0 0 15 15"><g id="surface1"><path style="fill:none;stroke-width:3;stroke-linecap:butt;stroke-linejoin:miter;stroke:#000;stroke-opacity:1;stroke-miterlimit:4" d="M 1.484375 1.510417 L 88.518229 1.510417 L 88.518229 198.489583 L 1.484375 198.489583 Z M 1.484375 1.510417" transform="matrix(0.0789474,0,0,0.075,0,0)"/><path style="fill:none;stroke-width:3;stroke-linecap:butt;stroke-linejoin:miter;stroke:#000;stroke-opacity:1;stroke-miterlimit:4" d="M 101.481771 2.5 L 188.515625 2.5 L 188.515625 89.479167 L 101.481771 89.479167 Z M 101.481771 2.5" transform="matrix(0.0789474,0,0,0.075,0,0)"/><path style="fill:none;stroke-width:3;stroke-linecap:butt;stroke-linejoin:miter;stroke:#000;stroke-opacity:1;stroke-miterlimit:4" d="M 101.481771 102.5 L 138.492188 102.5 L 138.492188 198.489583 L 101.481771 198.489583 Z M 101.481771 102.5" transform="matrix(0.0789474,0,0,0.075,0,0)"/><path style="fill:none;stroke-width:3;stroke-linecap:butt;stroke-linejoin:miter;stroke:#000;stroke-opacity:1;stroke-miterlimit:4" d="M 151.505208 102.5 L 188.515625 102.5 L 188.515625 144.479167 L 151.505208 144.479167 Z M 151.505208 102.5" transform="matrix(0.0789474,0,0,0.075,0,0)"/><path style="fill:none;stroke-width:3;stroke-linecap:butt;stroke-linejoin:miter;stroke:#000;stroke-opacity:1;stroke-miterlimit:4" d="M 151.505208 155.520833 L 188.515625 155.520833 L 188.515625 197.5 L 151.505208 197.5 Z M 151.505208 155.520833" transform="matrix(0.0789474,0,0,0.075,0,0)"/></g></svg>