
<svg xmlns="http://www.w3.org/2000/svg" xmlns:xlink="http://www.w3.org/1999/xlink" width="15px" height="15px" viewBox="0 0 15 15" version="1.1">
<g id="surface1">
<path style="fill:none;stroke-width:3;stroke-linecap:butt;stroke-linejoin:miter;stroke:rgb(0%,0%,0%);stroke-opacity:1;stroke-miterlimit:4;" d="M 1.510417 198.510417 L 58.489583 198.510417 L 58.489583 325.489583 L 1.510417 325.489583 Z M 1.510417 198.510417 " transform="matrix(-0.000000000000000014,-0.075,0.075,-0.000000000000000014,-14.775,15)"/>
<path style="fill:none;stroke-width:3;stroke-linecap:butt;stroke-linejoin:miter;stroke:rgb(0%,0%,0%);stroke-opacity:1;stroke-miterlimit:4;" d="M 1.520833 129.510417 L 58.5 129.510417 L 58.5 256.489583 L 1.520833 256.489583 Z M 1.520833 129.510417 " transform="matrix(-0.000000000000000014,-0.075,0.075,-0.000000000000000014,-9.6,9.825)"/>
<path style="fill:none;stroke-width:3;stroke-linecap:butt;stroke-linejoin:miter;stroke:rgb(0%,0%,0%);stroke-opacity:1;stroke-miterlimit:4;" d="M 1.489583 61.510417 L 58.520833 61.510417 L 58.520833 188.489583 L 1.489583 188.489583 Z M 1.489583 61.510417 " transform="matrix(-0.000000000000000014,-0.075,0.075,-0.000000000000000014,-4.5,4.725)"/>
<path style="fill:none;stroke-width:3;stroke-linecap:butt;stroke-linejoin:miter;stroke:rgb(0%,0%,0%);stroke-opacity:1;stroke-miterlimit:4;" d="M 141.510417 198.510417 L 228.489583 198.510417 L 228.489583 255.489583 L 141.510417 255.489583 Z M 141.510417 198.510417 " transform="matrix(-0.000000000000000014,-0.075,0.075,-0.000000000000000014,-4.275,25.5)"/>
<path style="fill:none;stroke-width:3;stroke-linecap:butt;stroke-linejoin:miter;stroke:rgb(0%,0%,0%);stroke-opacity:1;stroke-miterlimit:4;" d="M 141.489583 91.510417 L 228.520833 91.510417 L 228.520833 148.489583 L 141.489583 148.489583 Z M 141.489583 91.510417 " transform="matrix(-0.000000000000000014,-0.075,0.075,-0.000000000000000014,3.75,17.475)"/>
</g>
</svg>
