<svg xmlns="http://www.w3.org/2000/svg" xmlns:xlink="http://www.w3.org/1999/xlink" width="15" height="15" version="1.1" viewBox="0 0 15 15"><g id="surface1"><path style="fill:none;stroke-width:3;stroke-linecap:butt;stroke-linejoin:miter;stroke:#000;stroke-opacity:1;stroke-miterlimit:4" d="M 1.510417 1.510417 L 58.489583 1.510417 L 58.489583 128.489583 L 1.510417 128.489583 Z M 1.510417 1.510417" transform="matrix(0.075,0,0,0.075,0,0)"/><path style="fill:none;stroke-width:3;stroke-linecap:butt;stroke-linejoin:miter;stroke:#000;stroke-opacity:1;stroke-miterlimit:4" d="M 70.520833 1.510417 L 127.5 1.510417 L 127.5 128.489583 L 70.520833 128.489583 Z M 70.520833 1.510417" transform="matrix(0.075,0,0,0.075,0,0)"/><path style="fill:none;stroke-width:3;stroke-linecap:butt;stroke-linejoin:miter;stroke:#000;stroke-opacity:1;stroke-miterlimit:4" d="M 138.489583 1.510417 L 195.520833 1.510417 L 195.520833 128.489583 L 138.489583 128.489583 Z M 138.489583 1.510417" transform="matrix(0.075,0,0,0.075,0,0)"/><path style="fill:none;stroke-width:3;stroke-linecap:butt;stroke-linejoin:miter;stroke:#000;stroke-opacity:1;stroke-miterlimit:4" d="M 1.510417 141.510417 L 88.489583 141.510417 L 88.489583 198.489583 L 1.510417 198.489583 Z M 1.510417 141.510417" transform="matrix(0.075,0,0,0.075,0,0)"/><path style="fill:none;stroke-width:3;stroke-linecap:butt;stroke-linejoin:miter;stroke:#000;stroke-opacity:1;stroke-miterlimit:4" d="M 108.489583 141.510417 L 195.520833 141.510417 L 195.520833 198.489583 L 108.489583 198.489583 Z M 108.489583 141.510417" transform="matrix(0.075,0,0,0.075,0,0)"/></g></svg>