<svg xmlns="http://www.w3.org/2000/svg" xmlns:xlink="http://www.w3.org/1999/xlink" width="15" height="15" version="1.1" viewBox="0 0 15 15"><g id="surface1"><path style="fill:none;stroke-width:3;stroke-linecap:butt;stroke-linejoin:miter;stroke:#000;stroke-opacity:1;stroke-miterlimit:4" d="M 1.510417 1.510417 L 93.489583 1.510417 L 93.489583 198.489583 L 1.510417 198.489583 Z M 1.510417 1.510417" transform="matrix(0.075,0,0,0.075,0,0)"/><path style="fill:none;stroke-width:3;stroke-linecap:butt;stroke-linejoin:miter;stroke:#000;stroke-opacity:1;stroke-miterlimit:4" d="M 106.510417 1.510417 L 198.489583 1.510417 L 198.489583 61.510417 L 106.510417 61.510417 Z M 106.510417 1.510417" transform="matrix(0.075,0,0,0.075,0,0)"/><path style="fill:none;stroke-width:3;stroke-linecap:butt;stroke-linejoin:miter;stroke:#000;stroke-opacity:1;stroke-miterlimit:4" d="M 106.510417 69.479167 L 198.489583 69.479167 L 198.489583 129.479167 L 106.510417 129.479167 Z M 106.510417 69.479167" transform="matrix(0.075,0,0,0.075,0,0)"/><path style="fill:none;stroke-width:3;stroke-linecap:butt;stroke-linejoin:miter;stroke:#000;stroke-opacity:1;stroke-miterlimit:4" d="M 106.510417 138.489583 L 198.489583 138.489583 L 198.489583 198.489583 L 106.510417 198.489583 Z M 106.510417 138.489583" transform="matrix(0.075,0,0,0.075,0,0)"/></g></svg>