
<svg xmlns="http://www.w3.org/2000/svg" xmlns:xlink="http://www.w3.org/1999/xlink" width="15px" height="15px" viewBox="0 0 15 15" version="1.1">
<g id="surface1">
<path style="fill:none;stroke-width:3;stroke-linecap:butt;stroke-linejoin:miter;stroke:rgb(100%,100%,100%);stroke-opacity:1;stroke-miterlimit:4;" d="M 4.99349 19.507812 L 14.995833 19.507812 C 16.931771 19.507812 18.498958 21.071875 18.498958 22.996875 L 18.498958 43.003125 C 18.498958 44.928125 16.931771 46.492188 14.995833 46.492188 L 4.99349 46.492188 C 3.072917 46.492188 1.505729 44.928125 1.505729 43.003125 L 1.505729 22.996875 C 1.505729 21.071875 3.072917 19.507812 4.99349 19.507812 Z M 4.99349 19.507812 " transform="matrix(0.254237,0,0,0.227273,0,0)"/>
<path style="fill:none;stroke-width:3;stroke-linecap:butt;stroke-linejoin:miter;stroke:rgb(100%,100%,100%);stroke-opacity:1;stroke-miterlimit:4;" d="M 18.007292 20.504688 L 34.263021 2.440625 C 34.86224 1.753125 35.999219 2.182813 35.999219 3.110938 L 35.999219 62.889063 C 35.999219 63.817188 34.86224 64.246875 34.263021 63.559375 L 18.007292 45.495313 " transform="matrix(0.254237,0,0,0.227273,0,0)"/>
<path style=" stroke:none;fill-rule:nonzero;fill:rgb(100%,100%,100%);fill-opacity:1;" d="M 12.710938 9.546875 L 12.457031 9.546875 L 12.457031 9.773438 L 12.710938 9.773438 Z M 12.710938 7.953125 L 12.964844 7.953125 L 12.964844 7.726562 L 12.710938 7.726562 Z M 12.964844 9.546875 L 12.964844 9.773438 L 13.21875 9.773438 L 13.21875 9.546875 Z M 12.964844 7.953125 L 12.964844 7.726562 L 12.710938 7.726562 L 12.710938 7.953125 Z M 14.746094 7.953125 L 14.746094 8.183594 L 15 8.183594 L 15 7.953125 Z M 14.746094 7.726562 L 15 7.726562 L 15 7.5 L 14.746094 7.5 Z M 12.964844 7.726562 L 12.710938 7.726562 L 12.710938 7.953125 L 12.964844 7.953125 Z M 12.964844 6.136719 L 13.21875 6.136719 L 13.21875 5.910156 L 12.964844 5.910156 Z M 12.710938 6.136719 L 12.710938 5.910156 L 12.457031 5.910156 L 12.457031 6.136719 Z M 12.710938 7.726562 L 12.710938 7.953125 L 12.964844 7.953125 L 12.964844 7.726562 Z M 10.933594 7.726562 L 10.933594 7.5 L 10.679688 7.5 L 10.679688 7.726562 Z M 10.933594 7.953125 L 10.679688 7.953125 L 10.679688 8.183594 L 10.933594 8.183594 Z M 12.964844 9.546875 L 12.964844 7.953125 L 12.457031 7.953125 L 12.457031 9.546875 Z M 12.964844 9.316406 L 12.710938 9.316406 L 12.710938 9.773438 L 12.964844 9.773438 Z M 12.710938 7.953125 L 12.710938 9.546875 L 13.21875 9.546875 L 13.21875 7.953125 Z M 14.746094 7.726562 L 12.964844 7.726562 L 12.964844 8.183594 L 14.746094 8.183594 Z M 14.492188 7.726562 L 14.492188 7.953125 L 15 7.953125 L 15 7.726562 Z M 12.964844 7.953125 L 14.746094 7.953125 L 14.746094 7.5 L 12.964844 7.5 Z M 12.710938 6.136719 L 12.710938 7.726562 L 13.21875 7.726562 L 13.21875 6.136719 Z M 12.710938 6.363281 L 12.964844 6.363281 L 12.964844 5.910156 L 12.710938 5.910156 Z M 12.964844 7.726562 L 12.964844 6.136719 L 12.457031 6.136719 L 12.457031 7.726562 Z M 10.933594 7.953125 L 12.710938 7.953125 L 12.710938 7.5 L 10.933594 7.5 Z M 11.1875 7.953125 L 11.1875 7.726562 L 10.679688 7.726562 L 10.679688 7.953125 Z M 12.710938 7.726562 L 10.933594 7.726562 L 10.933594 8.183594 L 12.710938 8.183594 Z M 12.710938 7.726562 "/>
</g>
</svg>
