<svg xmlns="http://www.w3.org/2000/svg" width="200" height="200" fill="none" viewBox="0 0 200 200"><rect width="25" height="58" x="2.5" y="-2.5" stroke="#000" stroke-width="5" transform="matrix(1 0 0 -1 1.49012e-07 195)"/><rect width="25" height="58" x="2.5" y="-2.5" stroke="#000" stroke-width="5" transform="matrix(1 0 0 -1 1.49012e-07 126)"/><rect width="25" height="56" x="2.5" y="-2.5" stroke="#000" stroke-width="5" transform="matrix(1 0 0 -1 1.49012e-07 56)"/><path stroke="#000" stroke-width="5" d="M125.5 2.5V27.5L197.5 27.5V2.5L125.5 2.5Z"/><path stroke="#000" stroke-width="5" d="M42.5 2.5V27.5L114.5 27.5V2.5L42.5 2.5Z"/><rect width="155" height="152" x="2.5" y="-2.5" stroke="#000" stroke-width="5" transform="matrix(1 0 0 -1 40 195)"/></svg>