
<svg xmlns="http://www.w3.org/2000/svg" xmlns:xlink="http://www.w3.org/1999/xlink" width="10px" height="10px" viewBox="0 0 10 10" version="1.1">
<g id="surface1">
<path style="fill:none;stroke-width:3;stroke-linecap:butt;stroke-linejoin:miter;stroke:rgb(0%,0%,0%);stroke-opacity:1;stroke-miterlimit:4;" d="M 198.484375 198.484375 L 225.515625 198.484375 L 225.515625 258.484375 L 198.484375 258.484375 Z M 198.484375 198.484375 " transform="matrix(-0.05,0.000000000000000006,-0.000000000000000006,-0.05,19.85,19.85)"/>
<path style="fill:none;stroke-width:3;stroke-linecap:butt;stroke-linejoin:miter;stroke:rgb(0%,0%,0%);stroke-opacity:1;stroke-miterlimit:4;" d="M 198.484375 129.46875 L 225.515625 129.46875 L 225.515625 189.46875 L 198.484375 189.46875 Z M 198.484375 129.46875 " transform="matrix(-0.05,0.000000000000000006,-0.000000000000000006,-0.05,19.85,12.95)"/>
<path style="fill:none;stroke-width:3;stroke-linecap:butt;stroke-linejoin:miter;stroke:rgb(0%,0%,0%);stroke-opacity:1;stroke-miterlimit:4;" d="M 198.484375 59.46875 L 225.515625 59.46875 L 225.515625 117.515625 L 198.484375 117.515625 Z M 198.484375 59.46875 " transform="matrix(-0.05,0.000000000000000006,-0.000000000000000006,-0.05,19.85,5.95)"/>
<path style="fill:none;stroke-width:3;stroke-linecap:butt;stroke-linejoin:miter;stroke:rgb(0%,0%,0%);stroke-opacity:1;stroke-miterlimit:4;" d="M 75.46875 1.484375 L 75.46875 28.515625 L 1.484375 28.515625 L 1.484375 1.484375 Z M 75.46875 1.484375 " transform="matrix(0.05,0,0,0.05,0,0)"/>
<path style="fill:none;stroke-width:3;stroke-linecap:butt;stroke-linejoin:miter;stroke:rgb(0%,0%,0%);stroke-opacity:1;stroke-miterlimit:4;" d="M 158.515625 1.484375 L 158.515625 28.515625 L 84.53125 28.515625 L 84.53125 1.484375 Z M 158.515625 1.484375 " transform="matrix(0.05,0,0,0.05,0,0)"/>
<path style="fill:none;stroke-width:3;stroke-linecap:butt;stroke-linejoin:miter;stroke:rgb(0%,0%,0%);stroke-opacity:1;stroke-miterlimit:4;" d="M 158.484375 198.484375 L 315.515625 198.484375 L 315.515625 352.46875 L 158.484375 352.46875 Z M 158.484375 198.484375 " transform="matrix(-0.05,0.000000000000000006,-0.000000000000000006,-0.05,15.85,19.85)"/>
</g>
</svg>
