
<svg xmlns="http://www.w3.org/2000/svg" xmlns:xlink="http://www.w3.org/1999/xlink" width="10px" height="10px" viewBox="0 0 10 10" version="1.1">
<g id="surface1">
<path style="fill:none;stroke-width:3;stroke-linecap:butt;stroke-linejoin:miter;stroke:rgb(0%,0%,0%);stroke-opacity:1;stroke-miterlimit:4;" d="M 1.484375 1.484375 L 28.515625 1.484375 L 28.515625 61.484375 L 1.484375 61.484375 Z M 1.484375 1.484375 " transform="matrix(0.05,0,0,0.05,0,0)"/>
<path style="fill:none;stroke-width:3;stroke-linecap:butt;stroke-linejoin:miter;stroke:rgb(0%,0%,0%);stroke-opacity:1;stroke-miterlimit:4;" d="M 1.484375 70.46875 L 28.515625 70.46875 L 28.515625 130.46875 L 1.484375 130.46875 Z M 1.484375 70.46875 " transform="matrix(0.05,0,0,0.05,0,0)"/>
<path style="fill:none;stroke-width:3;stroke-linecap:butt;stroke-linejoin:miter;stroke:rgb(0%,0%,0%);stroke-opacity:1;stroke-miterlimit:4;" d="M 1.484375 140.46875 L 28.515625 140.46875 L 28.515625 198.515625 L 1.484375 198.515625 Z M 1.484375 140.46875 " transform="matrix(0.05,0,0,0.05,0,0)"/>
<path style="fill:none;stroke-width:3;stroke-linecap:butt;stroke-linejoin:miter;stroke:rgb(0%,0%,0%);stroke-opacity:1;stroke-miterlimit:4;" d="M 124.53125 198.515625 L 124.53125 171.484375 L 198.515625 171.484375 L 198.515625 198.515625 Z M 124.53125 198.515625 " transform="matrix(0.05,0,0,0.05,0,0)"/>
<path style="fill:none;stroke-width:3;stroke-linecap:butt;stroke-linejoin:miter;stroke:rgb(0%,0%,0%);stroke-opacity:1;stroke-miterlimit:4;" d="M 41.484375 198.515625 L 41.484375 171.484375 L 115.46875 171.484375 L 115.46875 198.515625 Z M 41.484375 198.515625 " transform="matrix(0.05,0,0,0.05,0,0)"/>
<path style="fill:none;stroke-width:3;stroke-linecap:butt;stroke-linejoin:miter;stroke:rgb(0%,0%,0%);stroke-opacity:1;stroke-miterlimit:4;" d="M 41.484375 1.484375 L 198.515625 1.484375 L 198.515625 155.46875 L 41.484375 155.46875 Z M 41.484375 1.484375 " transform="matrix(0.05,0,0,0.05,0,0)"/>
</g>
</svg>
