<svg xmlns="http://www.w3.org/2000/svg" xmlns:xlink="http://www.w3.org/1999/xlink" width="10" height="10" version="1.1" viewBox="0 0 10 10"><g id="surface1"><path style="fill:none;stroke-width:3;stroke-linecap:butt;stroke-linejoin:miter;stroke:#000;stroke-opacity:1;stroke-miterlimit:4" d="M -1.515625 1.484375 L 25.515625 1.484375 L 25.515625 61.484375 L -1.515625 61.484375 Z M -1.515625 1.484375" transform="matrix(-0.05,0,0,0.05,9.85,0.00000000447035)"/><path style="fill:none;stroke-width:3;stroke-linecap:butt;stroke-linejoin:miter;stroke:#000;stroke-opacity:1;stroke-miterlimit:4" d="M -1.515625 1.46875 L 25.515625 1.46875 L 25.515625 61.46875 L -1.515625 61.46875 Z M -1.515625 1.46875" transform="matrix(-0.05,0,0,0.05,9.85,3.45)"/><path style="fill:none;stroke-width:3;stroke-linecap:butt;stroke-linejoin:miter;stroke:#000;stroke-opacity:1;stroke-miterlimit:4" d="M -1.515625 1.46875 L 25.515625 1.46875 L 25.515625 59.515625 L -1.515625 59.515625 Z M -1.515625 1.46875" transform="matrix(-0.05,0,0,0.05,9.85,6.95)"/><path style="fill:none;stroke-width:3;stroke-linecap:butt;stroke-linejoin:miter;stroke:#000;stroke-opacity:1;stroke-miterlimit:4" d="M 75.46875 198.515625 L 75.46875 171.484375 L 1.484375 171.484375 L 1.484375 198.515625 Z M 75.46875 198.515625" transform="matrix(0.05,0,0,0.05,0,0)"/><path style="fill:none;stroke-width:3;stroke-linecap:butt;stroke-linejoin:miter;stroke:#000;stroke-opacity:1;stroke-miterlimit:4" d="M 158.515625 198.515625 L 158.515625 171.484375 L 84.53125 171.484375 L 84.53125 198.515625 Z M 158.515625 198.515625" transform="matrix(0.05,0,0,0.05,0,0)"/><path style="fill:none;stroke-width:3;stroke-linecap:butt;stroke-linejoin:miter;stroke:#000;stroke-opacity:1;stroke-miterlimit:4" d="M -1.515625 1.484375 L 155.515625 1.484375 L 155.515625 155.46875 L -1.515625 155.46875 Z M -1.515625 1.484375" transform="matrix(-0.05,0,0,0.05,7.85,0.00000000447035)"/></g></svg>