<svg xmlns="http://www.w3.org/2000/svg" xmlns:xlink="http://www.w3.org/1999/xlink" width="10" height="10" version="1.1" viewBox="0 0 10 10"><g id="surface1"><path style="fill:none;stroke-width:3;stroke-linecap:butt;stroke-linejoin:miter;stroke:#000;stroke-opacity:1;stroke-miterlimit:4" d="M 1.484375 1.484375 L 88.46875 1.484375 L 88.46875 198.515625 L 1.484375 198.515625 Z M 1.484375 1.484375" transform="matrix(0.0526316,0,0,0.05,0,0)"/><path style="fill:none;stroke-width:3;stroke-linecap:butt;stroke-linejoin:miter;stroke:#000;stroke-opacity:1;stroke-miterlimit:4" d="M 101.53125 2.5 L 188.515625 2.5 L 188.515625 89.53125 L 101.53125 89.53125 Z M 101.53125 2.5" transform="matrix(0.0526316,0,0,0.05,0,0)"/><path style="fill:none;stroke-width:3;stroke-linecap:butt;stroke-linejoin:miter;stroke:#000;stroke-opacity:1;stroke-miterlimit:4" d="M 101.53125 102.5 L 138.492188 102.5 L 138.492188 198.515625 L 101.53125 198.515625 Z M 101.53125 102.5" transform="matrix(0.0526316,0,0,0.05,0,0)"/><path style="fill:none;stroke-width:3;stroke-linecap:butt;stroke-linejoin:miter;stroke:#000;stroke-opacity:1;stroke-miterlimit:4" d="M 151.480469 102.5 L 188.515625 102.5 L 188.515625 144.53125 L 151.480469 144.53125 Z M 151.480469 102.5" transform="matrix(0.0526316,0,0,0.05,0,0)"/><path style="fill:none;stroke-width:3;stroke-linecap:butt;stroke-linejoin:miter;stroke:#000;stroke-opacity:1;stroke-miterlimit:4" d="M 151.480469 155.46875 L 188.515625 155.46875 L 188.515625 197.5 L 151.480469 197.5 Z M 151.480469 155.46875" transform="matrix(0.0526316,0,0,0.05,0,0)"/></g></svg>