<svg xmlns="http://www.w3.org/2000/svg" xmlns:xlink="http://www.w3.org/1999/xlink" width="10" height="10" version="1.1" viewBox="0 0 10 10"><g id="surface1"><path style="fill:none;stroke-width:3;stroke-linecap:butt;stroke-linejoin:miter;stroke:#000;stroke-opacity:1;stroke-miterlimit:4" d="M 1.484375 1.484375 L 93.515625 1.484375 L 93.515625 198.515625 L 1.484375 198.515625 Z M 1.484375 1.484375" transform="matrix(0,0.05,0.05,0,0,0)"/><path style="fill:none;stroke-width:3;stroke-linecap:butt;stroke-linejoin:miter;stroke:#000;stroke-opacity:1;stroke-miterlimit:4" d="M 1.484375 1.484375 L 93.515625 1.484375 L 93.515625 61.484375 L 1.484375 61.484375 Z M 1.484375 1.484375" transform="matrix(0,0.05,0.05,0,0,5.25)"/><path style="fill:none;stroke-width:3;stroke-linecap:butt;stroke-linejoin:miter;stroke:#000;stroke-opacity:1;stroke-miterlimit:4" d="M 1.484375 1.53125 L 93.515625 1.53125 L 93.515625 61.53125 L 1.484375 61.53125 Z M 1.484375 1.53125" transform="matrix(0,0.05,0.05,0,3.4,5.25)"/><path style="fill:none;stroke-width:3;stroke-linecap:butt;stroke-linejoin:miter;stroke:#000;stroke-opacity:1;stroke-miterlimit:4" d="M 1.484375 1.515625 L 93.515625 1.515625 L 93.515625 61.515625 L 1.484375 61.515625 Z M 1.484375 1.515625" transform="matrix(0,0.05,0.05,0,6.85,5.25)"/></g></svg>