<svg xmlns="http://www.w3.org/2000/svg" xmlns:xlink="http://www.w3.org/1999/xlink" width="10" height="10" version="1.1" viewBox="0 0 10 10"><g id="surface1"><path style="fill:none;stroke-width:3;stroke-linecap:butt;stroke-linejoin:miter;stroke:#fff;stroke-opacity:1;stroke-miterlimit:4" d="M 5.005859 18.992188 L 14.996094 18.992188 C 16.929688 18.992188 18.498047 20.566406 18.498047 22.496094 L 18.498047 42.503906 C 18.498047 44.433594 16.929688 46.007812 14.996094 46.007812 L 5.005859 46.007812 C 3.072266 46.007812 1.503906 44.433594 1.503906 42.503906 L 1.503906 22.496094 C 1.503906 20.566406 3.072266 18.992188 5.005859 18.992188 Z M 5.005859 18.992188" transform="matrix(0.181818,0,0,0.153846,0,0)"/><path style="fill:none;stroke-width:3;stroke-linecap:butt;stroke-linejoin:miter;stroke:#fff;stroke-opacity:1;stroke-miterlimit:4" d="M 18.003906 20.007812 L 34.246094 1.929688 C 34.869141 1.244141 36.007812 1.701172 36.007812 2.615234 L 36.007812 62.384766 C 36.007812 63.298828 34.869141 63.755859 34.246094 63.070312 L 18.003906 44.992188" transform="matrix(0.181818,0,0,0.153846,0,0)"/><path style="fill:none;stroke-width:3;stroke-linecap:butt;stroke-linejoin:miter;stroke:#fff;stroke-opacity:1;stroke-miterlimit:4" d="M 8.25 62.994141 L 53.259766 9.369141" transform="matrix(0.181818,0,0,0.153846,0,0)"/></g></svg>