
<svg xmlns="http://www.w3.org/2000/svg" xmlns:xlink="http://www.w3.org/1999/xlink" width="20px" height="20px" viewBox="0 0 20 20" version="1.1">
<g id="surface1">
<path style="fill:none;stroke-width:3;stroke-linecap:butt;stroke-linejoin:miter;stroke:rgb(0%,0%,0%);stroke-opacity:1;stroke-miterlimit:4;" d="M 1.484375 1.484375 L 28.515625 1.484375 L 28.515625 61.484375 L 1.484375 61.484375 Z M 1.484375 1.484375 " transform="matrix(0.1,0,0,0.1,0,0)"/>
<path style="fill:none;stroke-width:3;stroke-linecap:butt;stroke-linejoin:miter;stroke:rgb(0%,0%,0%);stroke-opacity:1;stroke-miterlimit:4;" d="M 1.484375 70.507812 L 28.515625 70.507812 L 28.515625 130.507812 L 1.484375 130.507812 Z M 1.484375 70.507812 " transform="matrix(0.1,0,0,0.1,0,0)"/>
<path style="fill:none;stroke-width:3;stroke-linecap:butt;stroke-linejoin:miter;stroke:rgb(0%,0%,0%);stroke-opacity:1;stroke-miterlimit:4;" d="M 1.484375 140.507812 L 28.515625 140.507812 L 28.515625 198.515625 L 1.484375 198.515625 Z M 1.484375 140.507812 " transform="matrix(0.1,0,0,0.1,0,0)"/>
<path style="fill:none;stroke-width:3;stroke-linecap:butt;stroke-linejoin:miter;stroke:rgb(0%,0%,0%);stroke-opacity:1;stroke-miterlimit:4;" d="M 124.492188 198.515625 L 124.492188 171.484375 L 198.515625 171.484375 L 198.515625 198.515625 Z M 124.492188 198.515625 " transform="matrix(0.1,0,0,0.1,0,0)"/>
<path style="fill:none;stroke-width:3;stroke-linecap:butt;stroke-linejoin:miter;stroke:rgb(0%,0%,0%);stroke-opacity:1;stroke-miterlimit:4;" d="M 41.484375 198.515625 L 41.484375 171.484375 L 115.507812 171.484375 L 115.507812 198.515625 Z M 41.484375 198.515625 " transform="matrix(0.1,0,0,0.1,0,0)"/>
<path style="fill:none;stroke-width:3;stroke-linecap:butt;stroke-linejoin:miter;stroke:rgb(0%,0%,0%);stroke-opacity:1;stroke-miterlimit:4;" d="M 41.484375 1.484375 L 198.515625 1.484375 L 198.515625 155.507812 L 41.484375 155.507812 Z M 41.484375 1.484375 " transform="matrix(0.1,0,0,0.1,0,0)"/>
</g>
</svg>
