
<svg xmlns="http://www.w3.org/2000/svg" xmlns:xlink="http://www.w3.org/1999/xlink" width="20px" height="20px" viewBox="0 0 20 20" version="1.1">
<g id="surface1">
<path style="fill:none;stroke-width:3;stroke-linecap:butt;stroke-linejoin:miter;stroke:rgb(0%,0%,0%);stroke-opacity:1;stroke-miterlimit:4;" d="M 1.484375 1.484375 L 58.515625 1.484375 L 58.515625 128.515625 L 1.484375 128.515625 Z M 1.484375 1.484375 " transform="matrix(0.1,0,0,0.1,0,0)"/>
<path style="fill:none;stroke-width:3;stroke-linecap:butt;stroke-linejoin:miter;stroke:rgb(0%,0%,0%);stroke-opacity:1;stroke-miterlimit:4;" d="M 70.507812 1.484375 L 127.5 1.484375 L 127.5 128.515625 L 70.507812 128.515625 Z M 70.507812 1.484375 " transform="matrix(0.1,0,0,0.1,0,0)"/>
<path style="fill:none;stroke-width:3;stroke-linecap:butt;stroke-linejoin:miter;stroke:rgb(0%,0%,0%);stroke-opacity:1;stroke-miterlimit:4;" d="M 138.515625 1.484375 L 195.507812 1.484375 L 195.507812 128.515625 L 138.515625 128.515625 Z M 138.515625 1.484375 " transform="matrix(0.1,0,0,0.1,0,0)"/>
<path style="fill:none;stroke-width:3;stroke-linecap:butt;stroke-linejoin:miter;stroke:rgb(0%,0%,0%);stroke-opacity:1;stroke-miterlimit:4;" d="M 1.484375 141.484375 L 88.515625 141.484375 L 88.515625 198.515625 L 1.484375 198.515625 Z M 1.484375 141.484375 " transform="matrix(0.1,0,0,0.1,0,0)"/>
<path style="fill:none;stroke-width:3;stroke-linecap:butt;stroke-linejoin:miter;stroke:rgb(0%,0%,0%);stroke-opacity:1;stroke-miterlimit:4;" d="M 108.515625 141.484375 L 195.507812 141.484375 L 195.507812 198.515625 L 108.515625 198.515625 Z M 108.515625 141.484375 " transform="matrix(0.1,0,0,0.1,0,0)"/>
</g>
</svg>
